<svg xmlns="http://www.w3.org/2000/svg" xmlns:xlink="http://www.w3.org/1999/xlink" width="40" zoomAndPan="magnify" viewBox="0 0 30 37.92" height="40" preserveAspectRatio="xMidYMid meet" version="1.0"><defs><clipPath id="057e550b3b"><path d="M 0.03125 0 L 29.96875 0 L 29.96875 29.9375 L 0.03125 29.9375 Z M 0.03125 0 " clip-rule="nonzero"/></clipPath><clipPath id="13db7dc5ba"><path d="M 15 0 C 6.734375 0 0.03125 6.703125 0.03125 14.96875 C 0.03125 23.234375 6.734375 29.9375 15 29.9375 C 23.265625 29.9375 29.96875 23.234375 29.96875 14.96875 C 29.96875 6.703125 23.265625 0 15 0 Z M 15 0 " clip-rule="nonzero"/></clipPath><clipPath id="82b8af9b39"><path d="M 0.03125 0 L 29.96875 0 L 29.96875 29.9375 L 0.03125 29.9375 Z M 0.03125 0 " clip-rule="nonzero"/></clipPath><clipPath id="11afc01526"><path d="M 15 0 C 6.734375 0 0.03125 6.703125 0.03125 14.96875 C 0.03125 23.234375 6.734375 29.9375 15 29.9375 C 23.265625 29.9375 29.96875 23.234375 29.96875 14.96875 C 29.96875 6.703125 23.265625 0 15 0 Z M 15 0 " clip-rule="nonzero"/></clipPath><clipPath id="ccaf4eaa69"><rect x="0" width="30" y="0" height="30"/></clipPath><clipPath id="5803044c17"><path d="M 3 12 L 13 12 L 13 22 L 3 22 Z M 3 12 " clip-rule="nonzero"/></clipPath><clipPath id="fbe40b2429"><path d="M 5.859375 12.097656 L 13.226562 18.996094 L 10.390625 22.027344 L 3.023438 15.125 Z M 5.859375 12.097656 " clip-rule="nonzero"/></clipPath><clipPath id="b744f19865"><path d="M 6.402344 12.609375 L 12.679688 18.484375 C 12.824219 18.621094 12.910156 18.808594 12.914062 19.007812 C 12.921875 19.203125 12.847656 19.398438 12.714844 19.542969 L 10.902344 21.476562 C 10.765625 21.621094 10.578125 21.707031 10.378906 21.714844 C 10.179688 21.722656 9.988281 21.648438 9.84375 21.511719 L 3.570312 15.636719 C 3.421875 15.503906 3.339844 15.3125 3.332031 15.117188 C 3.324219 14.917969 3.398438 14.726562 3.535156 14.578125 L 5.347656 12.644531 C 5.480469 12.5 5.667969 12.414062 5.867188 12.40625 C 6.066406 12.402344 6.257812 12.472656 6.402344 12.609375 Z M 6.402344 12.609375 " clip-rule="nonzero"/></clipPath><clipPath id="fe8eb1b47e"><path d="M 0.144531 0.214844 L 9.964844 0.214844 L 9.964844 9.792969 L 0.144531 9.792969 Z M 0.144531 0.214844 " clip-rule="nonzero"/></clipPath><clipPath id="fb1a5cdd7a"><path d="M 2.859375 0.0976562 L 10.226562 6.996094 L 7.390625 10.027344 L 0.0234375 3.125 Z M 2.859375 0.0976562 " clip-rule="nonzero"/></clipPath><clipPath id="e455af20df"><path d="M 3.402344 0.609375 L 9.679688 6.484375 C 9.824219 6.621094 9.910156 6.808594 9.914062 7.007812 C 9.921875 7.203125 9.847656 7.398438 9.714844 7.542969 L 7.902344 9.476562 C 7.765625 9.621094 7.578125 9.707031 7.378906 9.714844 C 7.179688 9.722656 6.988281 9.648438 6.84375 9.511719 L 0.570312 3.636719 C 0.421875 3.503906 0.339844 3.3125 0.332031 3.117188 C 0.324219 2.917969 0.398438 2.726562 0.535156 2.578125 L 2.347656 0.644531 C 2.480469 0.5 2.667969 0.414062 2.867188 0.40625 C 3.066406 0.402344 3.257812 0.472656 3.402344 0.609375 Z M 3.402344 0.609375 " clip-rule="nonzero"/></clipPath><clipPath id="c7c05d79d6"><rect x="0" width="10" y="0" height="10"/></clipPath><clipPath id="66a080033e"><path d="M 9 6 L 27 6 L 27 24 L 9 24 Z M 9 6 " clip-rule="nonzero"/></clipPath><clipPath id="32bc027fb8"><path d="M 9.113281 20.714844 L 23.554688 6.277344 L 26.488281 9.210938 L 12.046875 23.648438 Z M 9.113281 20.714844 " clip-rule="nonzero"/></clipPath><clipPath id="d5ec31587d"><path d="M 9.644531 20.1875 L 23.019531 6.8125 C 23.160156 6.671875 23.347656 6.59375 23.546875 6.59375 C 23.746094 6.59375 23.9375 6.671875 24.078125 6.8125 L 25.953125 8.6875 C 26.09375 8.828125 26.171875 9.015625 26.171875 9.214844 C 26.171875 9.414062 26.09375 9.605469 25.953125 9.746094 L 12.578125 23.121094 C 12.4375 23.257812 12.246094 23.339844 12.046875 23.339844 C 11.851562 23.339844 11.660156 23.257812 11.519531 23.121094 L 9.644531 21.246094 C 9.503906 21.105469 9.425781 20.914062 9.425781 20.714844 C 9.425781 20.515625 9.503906 20.324219 9.644531 20.1875 Z M 9.644531 20.1875 " clip-rule="nonzero"/></clipPath><clipPath id="baa8b61eea"><path d="M 0.371094 0.464844 L 17.375 0.464844 L 17.375 17.46875 L 0.371094 17.46875 Z M 0.371094 0.464844 " clip-rule="nonzero"/></clipPath><clipPath id="8a8b89d06a"><path d="M 0.113281 14.714844 L 14.554688 0.277344 L 17.488281 3.210938 L 3.046875 17.648438 Z M 0.113281 14.714844 " clip-rule="nonzero"/></clipPath><clipPath id="5eb16924e3"><path d="M 0.644531 14.1875 L 14.019531 0.8125 C 14.160156 0.671875 14.347656 0.59375 14.546875 0.59375 C 14.746094 0.59375 14.9375 0.671875 15.078125 0.8125 L 16.953125 2.6875 C 17.09375 2.828125 17.171875 3.015625 17.171875 3.214844 C 17.171875 3.414062 17.09375 3.605469 16.953125 3.746094 L 3.578125 17.121094 C 3.4375 17.257812 3.246094 17.339844 3.046875 17.339844 C 2.851562 17.339844 2.660156 17.257812 2.519531 17.121094 L 0.644531 15.246094 C 0.503906 15.105469 0.425781 14.914062 0.425781 14.714844 C 0.425781 14.515625 0.503906 14.324219 0.644531 14.1875 Z M 0.644531 14.1875 " clip-rule="nonzero"/></clipPath><clipPath id="841cda339b"><rect x="0" width="18" y="0" height="18"/></clipPath></defs><g clip-path="url(#057e550b3b)"><g clip-path="url(#13db7dc5ba)"><g transform="matrix(1, 0, 0, 1, 0.000000000000000007, 0.000000000000005766)"><g clip-path="url(#ccaf4eaa69)"><g clip-path="url(#82b8af9b39)"><g clip-path="url(#11afc01526)"><path fill="#134ccb" d="M 0.03125 0 L 29.96875 0 L 29.96875 29.9375 L 0.03125 29.9375 Z M 0.03125 0 " fill-opacity="1" fill-rule="nonzero"/></g></g></g></g></g></g><g clip-path="url(#5803044c17)"><g clip-path="url(#fbe40b2429)"><g clip-path="url(#b744f19865)"><g transform="matrix(1, 0, 0, 1, 3, 12)"><g clip-path="url(#c7c05d79d6)"><g clip-path="url(#fe8eb1b47e)"><g clip-path="url(#fb1a5cdd7a)"><g clip-path="url(#e455af20df)"><path fill="#ffffff" d="M 2.859375 0.0976562 L 10.226562 6.996094 L 7.390625 10.027344 L 0.0234375 3.125 Z M 2.859375 0.0976562 " fill-opacity="1" fill-rule="nonzero"/></g></g></g></g></g></g></g></g><g clip-path="url(#66a080033e)"><g clip-path="url(#32bc027fb8)"><g clip-path="url(#d5ec31587d)"><g transform="matrix(1, 0, 0, 1, 9, 6)"><g clip-path="url(#841cda339b)"><g clip-path="url(#baa8b61eea)"><g clip-path="url(#8a8b89d06a)"><g clip-path="url(#5eb16924e3)"><path fill="#ffffff" d="M 0.113281 14.714844 L 14.554688 0.277344 L 17.488281 3.210938 L 3.046875 17.648438 Z M 0.113281 14.714844 " fill-opacity="1" fill-rule="nonzero"/></g></g></g></g></g></g></g></g></svg>