<svg xmlns="http://www.w3.org/2000/svg" xmlns:xlink="http://www.w3.org/1999/xlink" width="370" zoomAndPan="magnify" viewBox="0 0 277.5 74.999997" height="100" preserveAspectRatio="xMidYMid meet" version="1.0"><defs><g/><clipPath id="d6da744530"><path d="M 116.914062 14.578125 L 158.757812 14.578125 L 158.757812 56.421875 L 116.914062 56.421875 Z M 116.914062 14.578125 " clip-rule="nonzero"/></clipPath><clipPath id="208fc07cd0"><path d="M 137.835938 14.578125 C 126.28125 14.578125 116.914062 23.945312 116.914062 35.5 C 116.914062 47.054688 126.28125 56.421875 137.835938 56.421875 C 149.390625 56.421875 158.757812 47.054688 158.757812 35.5 C 158.757812 23.945312 149.390625 14.578125 137.835938 14.578125 Z M 137.835938 14.578125 " clip-rule="nonzero"/></clipPath><clipPath id="4051fb1505"><path d="M 0.914062 0.578125 L 42.757812 0.578125 L 42.757812 42.421875 L 0.914062 42.421875 Z M 0.914062 0.578125 " clip-rule="nonzero"/></clipPath><clipPath id="0b266afd84"><path d="M 21.835938 0.578125 C 10.28125 0.578125 0.914062 9.945312 0.914062 21.5 C 0.914062 33.054688 10.28125 42.421875 21.835938 42.421875 C 33.390625 42.421875 42.757812 33.054688 42.757812 21.5 C 42.757812 9.945312 33.390625 0.578125 21.835938 0.578125 Z M 21.835938 0.578125 " clip-rule="nonzero"/></clipPath><clipPath id="c8f8aa3aa9"><rect x="0" width="43" y="0" height="43"/></clipPath><clipPath id="d8616e8225"><rect x="0" width="197" y="0" height="71"/></clipPath><clipPath id="2353e8f27e"><path d="M 0 0.0664062 L 68 0.0664062 L 68 74.929688 L 0 74.929688 Z M 0 0.0664062 " clip-rule="nonzero"/></clipPath><clipPath id="1e007b5b96"><path d="M 0 0.0664062 L 67.726562 0.0664062 L 67.726562 74.929688 L 0 74.929688 Z M 0 0.0664062 " clip-rule="nonzero"/></clipPath><clipPath id="37aff619bc"><path d="M 33.863281 0.0664062 L 67.726562 18.785156 L 67.726562 56.214844 L 33.863281 74.933594 L 0 56.214844 L 0 18.785156 Z M 33.863281 0.0664062 " clip-rule="nonzero"/></clipPath><clipPath id="4d6814e411"><path d="M 0 0.0664062 L 67.726562 0.0664062 L 67.726562 74.929688 L 0 74.929688 Z M 0 0.0664062 " clip-rule="nonzero"/></clipPath><clipPath id="b36d14c920"><path d="M 33.863281 0.0664062 L 67.726562 18.785156 L 67.726562 56.214844 L 33.863281 74.933594 L 0 56.214844 L 0 18.785156 Z M 33.863281 0.0664062 " clip-rule="nonzero"/></clipPath><clipPath id="c68943d09b"><rect x="0" width="68" y="0" height="75"/></clipPath><clipPath id="ba62f3caf5"><path d="M 1.796875 2.050781 L 65.929688 2.050781 L 65.929688 72.949219 L 1.796875 72.949219 Z M 1.796875 2.050781 " clip-rule="nonzero"/></clipPath><clipPath id="718ba02137"><path d="M 33.863281 2.050781 L 65.929688 19.777344 L 65.929688 55.222656 L 33.863281 72.949219 L 1.796875 55.222656 L 1.796875 19.777344 Z M 33.863281 2.050781 " clip-rule="nonzero"/></clipPath><clipPath id="6629d5c38f"><path d="M 0.796875 0.0507812 L 64.929688 0.0507812 L 64.929688 70.949219 L 0.796875 70.949219 Z M 0.796875 0.0507812 " clip-rule="nonzero"/></clipPath><clipPath id="6cc13886da"><path d="M 32.863281 0.0507812 L 64.929688 17.777344 L 64.929688 53.222656 L 32.863281 70.949219 L 0.796875 53.222656 L 0.796875 17.777344 Z M 32.863281 0.0507812 " clip-rule="nonzero"/></clipPath><clipPath id="429a108c9c"><rect x="0" width="65" y="0" height="71"/></clipPath><clipPath id="e79a405d23"><path d="M 29.300781 32.804688 L 36.941406 32.804688 L 36.941406 40.441406 L 29.300781 40.441406 Z M 29.300781 32.804688 " clip-rule="nonzero"/></clipPath><clipPath id="dcf4989c7c"><path d="M 33.121094 32.804688 C 31.011719 32.804688 29.300781 34.515625 29.300781 36.625 C 29.300781 38.734375 31.011719 40.441406 33.121094 40.441406 C 35.230469 40.441406 36.941406 38.734375 36.941406 36.625 C 36.941406 34.515625 35.230469 32.804688 33.121094 32.804688 Z M 33.121094 32.804688 " clip-rule="nonzero"/></clipPath><clipPath id="4487252be9"><path d="M 0.300781 0.804688 L 7.941406 0.804688 L 7.941406 8.441406 L 0.300781 8.441406 Z M 0.300781 0.804688 " clip-rule="nonzero"/></clipPath><clipPath id="402ba4a67a"><path d="M 4.121094 0.804688 C 2.011719 0.804688 0.300781 2.515625 0.300781 4.625 C 0.300781 6.734375 2.011719 8.441406 4.121094 8.441406 C 6.230469 8.441406 7.941406 6.734375 7.941406 4.625 C 7.941406 2.515625 6.230469 0.804688 4.121094 0.804688 Z M 4.121094 0.804688 " clip-rule="nonzero"/></clipPath><clipPath id="a97f9c67a6"><rect x="0" width="8" y="0" height="9"/></clipPath><clipPath id="6d3f16c423"><path d="M 29.300781 32.804688 L 36.941406 32.804688 L 36.941406 40.441406 L 29.300781 40.441406 Z M 29.300781 32.804688 " clip-rule="nonzero"/></clipPath><clipPath id="280cb2ec79"><path d="M 33.121094 32.804688 C 31.011719 32.804688 29.300781 34.515625 29.300781 36.625 C 29.300781 38.734375 31.011719 40.441406 33.121094 40.441406 C 35.230469 40.441406 36.941406 38.734375 36.941406 36.625 C 36.941406 34.515625 35.230469 32.804688 33.121094 32.804688 Z M 33.121094 32.804688 " clip-rule="nonzero"/></clipPath><clipPath id="0bdd3304c2"><path d="M 0.300781 0.804688 L 7.941406 0.804688 L 7.941406 8.441406 L 0.300781 8.441406 Z M 0.300781 0.804688 " clip-rule="nonzero"/></clipPath><clipPath id="b091791a14"><path d="M 4.121094 0.804688 C 2.011719 0.804688 0.300781 2.515625 0.300781 4.625 C 0.300781 6.734375 2.011719 8.441406 4.121094 8.441406 C 6.230469 8.441406 7.941406 6.734375 7.941406 4.625 C 7.941406 2.515625 6.230469 0.804688 4.121094 0.804688 Z M 4.121094 0.804688 " clip-rule="nonzero"/></clipPath><clipPath id="6cec914f58"><rect x="0" width="8" y="0" height="9"/></clipPath><clipPath id="ea5f587188"><rect x="0" width="68" y="0" height="75"/></clipPath></defs><g transform="matrix(1, 0, 0, 1, 74, 2)"><g clip-path="url(#d8616e8225)"><g fill="#ffffff" fill-opacity="1"><g transform="translate(0.288537, 56.064742)"><g><path d="M 1.84375 -21.453125 C 1.84375 -24.035156 2.3125 -26.566406 3.25 -29.046875 C 4.1875 -31.535156 5.546875 -33.800781 7.328125 -35.84375 C 9.117188 -37.894531 11.304688 -39.523438 13.890625 -40.734375 C 16.472656 -41.953125 19.414062 -42.5625 22.71875 -42.5625 C 26.601562 -42.5625 29.96875 -41.707031 32.8125 -40 C 35.65625 -38.289062 37.769531 -36.066406 39.15625 -33.328125 L 32.84375 -28.96875 C 32.125 -30.5625 31.1875 -31.820312 30.03125 -32.75 C 28.882812 -33.6875 27.65625 -34.34375 26.34375 -34.71875 C 25.03125 -35.09375 23.738281 -35.28125 22.46875 -35.28125 C 20.40625 -35.28125 18.609375 -34.863281 17.078125 -34.03125 C 15.546875 -33.195312 14.265625 -32.101562 13.234375 -30.75 C 12.203125 -29.40625 11.4375 -27.894531 10.9375 -26.21875 C 10.4375 -24.550781 10.1875 -22.882812 10.1875 -21.21875 C 10.1875 -19.351562 10.484375 -17.554688 11.078125 -15.828125 C 11.679688 -14.097656 12.53125 -12.566406 13.625 -11.234375 C 14.71875 -9.898438 16.023438 -8.847656 17.546875 -8.078125 C 19.078125 -7.304688 20.757812 -6.921875 22.59375 -6.921875 C 23.90625 -6.921875 25.234375 -7.132812 26.578125 -7.5625 C 27.929688 -8 29.179688 -8.695312 30.328125 -9.65625 C 31.484375 -10.613281 32.382812 -11.847656 33.03125 -13.359375 L 39.765625 -9.484375 C 38.921875 -7.367188 37.554688 -5.578125 35.671875 -4.109375 C 33.785156 -2.640625 31.671875 -1.523438 29.328125 -0.765625 C 26.984375 -0.015625 24.660156 0.359375 22.359375 0.359375 C 19.335938 0.359375 16.570312 -0.265625 14.0625 -1.515625 C 11.5625 -2.765625 9.40625 -4.429688 7.59375 -6.515625 C 5.789062 -8.609375 4.378906 -10.957031 3.359375 -13.5625 C 2.347656 -16.164062 1.84375 -18.796875 1.84375 -21.453125 Z M 1.84375 -21.453125 "/></g></g></g><g fill="#ffffff" fill-opacity="1"><g transform="translate(41.173221, 56.064742)"><g><path d="M 4.40625 0 L 4.40625 -42.328125 L 22.359375 -42.328125 C 24.304688 -42.328125 26.09375 -41.925781 27.71875 -41.125 C 29.34375 -40.332031 30.757812 -39.257812 31.96875 -37.90625 C 33.1875 -36.5625 34.132812 -35.050781 34.8125 -33.375 C 35.488281 -31.707031 35.828125 -30 35.828125 -28.25 C 35.828125 -25.863281 35.269531 -23.597656 34.15625 -21.453125 C 33.039062 -19.304688 31.507812 -17.554688 29.5625 -16.203125 C 27.613281 -14.859375 25.3125 -14.1875 22.65625 -14.1875 L 12.640625 -14.1875 L 12.640625 0 Z M 12.640625 -21.40625 L 22.171875 -21.40625 C 23.171875 -21.40625 24.066406 -21.679688 24.859375 -22.234375 C 25.648438 -22.785156 26.285156 -23.585938 26.765625 -24.640625 C 27.242188 -25.703125 27.484375 -26.90625 27.484375 -28.25 C 27.484375 -29.71875 27.210938 -30.96875 26.671875 -32 C 26.140625 -33.039062 25.445312 -33.816406 24.59375 -34.328125 C 23.738281 -34.847656 22.8125 -35.109375 21.8125 -35.109375 L 12.640625 -35.109375 Z M 12.640625 -21.40625 "/></g></g></g><g fill="#ffffff" fill-opacity="1"><g transform="translate(78.303183, 56.064742)"><g><path d="M 4.40625 0 L 4.40625 -42.328125 L 23.125 -42.328125 C 25.070312 -42.328125 26.867188 -41.925781 28.515625 -41.125 C 30.171875 -40.332031 31.601562 -39.257812 32.8125 -37.90625 C 34.03125 -36.5625 34.960938 -35.050781 35.609375 -33.375 C 36.265625 -31.707031 36.59375 -30 36.59375 -28.25 C 36.59375 -26.46875 36.285156 -24.75 35.671875 -23.09375 C 35.054688 -21.445312 34.171875 -20.003906 33.015625 -18.765625 C 31.867188 -17.535156 30.519531 -16.585938 28.96875 -15.921875 L 38.625 0 L 29.5625 0 L 20.859375 -14.1875 L 12.640625 -14.1875 L 12.640625 0 Z M 12.640625 -21.40625 L 22.953125 -21.40625 C 23.984375 -21.40625 24.894531 -21.710938 25.6875 -22.328125 C 26.488281 -22.941406 27.125 -23.765625 27.59375 -24.796875 C 28.070312 -25.828125 28.3125 -26.976562 28.3125 -28.25 C 28.3125 -29.601562 28.03125 -30.785156 27.46875 -31.796875 C 26.914062 -32.816406 26.210938 -33.625 25.359375 -34.21875 C 24.503906 -34.8125 23.582031 -35.109375 22.59375 -35.109375 L 12.640625 -35.109375 Z M 12.640625 -21.40625 "/></g></g></g><g fill="#ffffff" fill-opacity="1"><g transform="translate(117.939738, 56.064742)"><g/></g></g><g fill="#ffffff" fill-opacity="1"><g transform="translate(132.243418, 56.064742)"><g/></g></g><g fill="#ffffff" fill-opacity="1"><g transform="translate(146.547099, 56.064742)"><g/></g></g><g fill="#ffffff" fill-opacity="1"><g transform="translate(159.125108, 56.064742)"><g><path d="M 36.0625 -35.109375 L 22.53125 -35.109375 L 22.53125 0 L 14.359375 0 L 14.359375 -35.109375 L 0.828125 -35.109375 L 0.828125 -42.328125 L 36.0625 -42.328125 Z M 36.0625 -35.109375 "/></g></g></g><g clip-path="url(#d6da744530)"><g clip-path="url(#208fc07cd0)"><g transform="matrix(1, 0, 0, 1, 116, 14)"><g clip-path="url(#c8f8aa3aa9)"><g clip-path="url(#4051fb1505)"><g clip-path="url(#0b266afd84)"><path fill="#ffffff" d="M 0.914062 0.578125 L 42.757812 0.578125 L 42.757812 42.421875 L 0.914062 42.421875 Z M 0.914062 0.578125 " fill-opacity="1" fill-rule="nonzero"/></g></g></g></g></g></g><path fill="#f7931a" d="M 153.511719 39.371094 C 151.34375 48.054688 142.550781 53.339844 133.863281 51.175781 C 125.183594 49.011719 119.898438 40.214844 122.0625 31.53125 C 124.226562 22.84375 133.023438 17.558594 141.707031 19.722656 C 150.390625 21.890625 155.675781 30.6875 153.511719 39.371094 Z M 153.511719 39.371094 " fill-opacity="1" fill-rule="nonzero"/><path fill="#ffffff" d="M 144.933594 33.140625 C 145.257812 30.984375 143.613281 29.824219 141.367188 29.050781 L 142.097656 26.128906 L 140.320312 25.683594 L 139.609375 28.53125 C 139.140625 28.414062 138.660156 28.304688 138.183594 28.195312 L 138.898438 25.332031 L 137.121094 24.886719 L 136.390625 27.808594 C 136.003906 27.722656 135.625 27.632812 135.257812 27.542969 L 135.257812 27.53125 L 132.804688 26.921875 L 132.332031 28.820312 C 132.332031 28.820312 133.652344 29.121094 133.625 29.140625 C 134.34375 29.320312 134.472656 29.796875 134.453125 30.175781 L 133.621094 33.503906 C 133.671875 33.515625 133.738281 33.535156 133.808594 33.5625 C 133.75 33.550781 133.683594 33.53125 133.621094 33.515625 L 132.457031 38.179688 C 132.367188 38.398438 132.144531 38.726562 131.640625 38.601562 C 131.660156 38.628906 130.347656 38.28125 130.347656 38.28125 L 129.464844 40.316406 L 131.78125 40.894531 C 132.210938 41 132.632812 41.113281 133.046875 41.21875 L 132.3125 44.175781 L 134.089844 44.617188 L 134.816406 41.695312 C 135.304688 41.828125 135.773438 41.949219 136.234375 42.0625 L 135.507812 44.972656 L 137.289062 45.417969 L 138.023438 42.464844 C 141.054688 43.039062 143.335938 42.808594 144.296875 40.066406 C 145.070312 37.855469 144.257812 36.582031 142.664062 35.753906 C 143.824219 35.484375 144.699219 34.71875 144.933594 33.140625 Z M 140.871094 38.839844 C 140.320312 41.046875 136.601562 39.855469 135.394531 39.554688 L 136.371094 35.640625 C 137.578125 35.941406 141.445312 36.535156 140.871094 38.839844 Z M 141.421875 33.109375 C 140.917969 35.117188 137.824219 34.097656 136.820312 33.847656 L 137.703125 30.296875 C 138.710938 30.546875 141.941406 31.011719 141.421875 33.109375 Z M 141.421875 33.109375 " fill-opacity="1" fill-rule="nonzero"/></g></g><g clip-path="url(#2353e8f27e)"><g transform="matrix(1, 0, 0, 1, 0, 0.000000000000005912)"><g clip-path="url(#ea5f587188)"><g clip-path="url(#1e007b5b96)"><g clip-path="url(#37aff619bc)"><g transform="matrix(1, 0, 0, 1, 0, 0.000000000000005912)"><g clip-path="url(#c68943d09b)"><g clip-path="url(#4d6814e411)"><g clip-path="url(#b36d14c920)"><path fill="#38b6ff" d="M 0 0.0664062 L 67.726562 0.0664062 L 67.726562 74.9375 L 0 74.9375 Z M 0 0.0664062 " fill-opacity="1" fill-rule="nonzero"/></g></g></g></g></g></g><g clip-path="url(#ba62f3caf5)"><g clip-path="url(#718ba02137)"><g transform="matrix(1, 0, 0, 1, 1, 2)"><g clip-path="url(#429a108c9c)"><g clip-path="url(#6629d5c38f)"><g clip-path="url(#6cc13886da)"><path fill="#111720" d="M 0.796875 0.0507812 L 64.929688 0.0507812 L 64.929688 70.949219 L 0.796875 70.949219 Z M 0.796875 0.0507812 " fill-opacity="1" fill-rule="nonzero"/></g></g></g></g></g></g><path stroke-linecap="butt" transform="matrix(-0.37449, -0.158684, 0.158684, -0.37449, 35.894736, 38.248844)" fill="none" stroke-linejoin="miter" d="M 15.000828 1.99567 L 63.859757 1.997744 " stroke="#38b6ff" stroke-width="4" stroke-opacity="1" stroke-miterlimit="4"/><path stroke-linecap="round" transform="matrix(-0.37449, -0.158684, 0.158684, -0.37449, 35.894736, 38.248844)" fill-opacity="1" fill="#38b6ff" fill-rule="nonzero" stroke-linejoin="round" d="M 1.995051 1.999164 C 2.001035 -1.309947 4.688123 -4.00275 7.997235 -3.996767 C 11.311442 -4.003374 13.995402 -1.312538 14.002009 2.001669 C 13.996025 5.310781 11.31778 7.999837 7.999826 7.9976 C 4.685618 8.004207 2.001658 5.313372 1.995051 1.999164 " stroke="#38b6ff" stroke-width="4" stroke-opacity="1" stroke-miterlimit="4"/><path stroke-linecap="round" transform="matrix(-0.37449, -0.158684, 0.158684, -0.37449, 35.894736, 38.248844)" fill-opacity="1" fill="#38b6ff" fill-rule="nonzero" stroke-linejoin="round" d="M 76.856691 1.997997 C 76.863297 5.312205 74.172462 7.996165 70.858254 8.002771 C 67.549143 7.996788 64.860087 5.318543 64.862323 2.000588 C 64.86456 -1.317366 67.546552 -3.997579 70.860759 -4.004186 C 74.178714 -4.00195 76.862674 -1.311114 76.856691 1.997997 " stroke="#38b6ff" stroke-width="4" stroke-opacity="1" stroke-miterlimit="4"/><path stroke-linecap="butt" transform="matrix(0.238545, -0.329424, 0.329424, 0.238545, 17.915583, 55.437862)" fill="none" stroke-linejoin="miter" d="M 15.001493 1.998123 L 52.393865 2.004531 " stroke="#38b6ff" stroke-width="4" stroke-opacity="1" stroke-miterlimit="4"/><path stroke-linecap="round" transform="matrix(0.238545, -0.329424, 0.329424, 0.238545, 17.915583, 55.437862)" fill-opacity="1" fill="#38b6ff" fill-rule="nonzero" stroke-linejoin="round" d="M 1.995532 2.00099 C 2.003064 -1.312798 4.681955 -3.999701 8.003521 -3.997802 C 11.311676 -3.998049 14.004213 -1.31138 13.996681 2.002408 C 13.996928 5.310563 11.310259 8.003099 8.002103 8.003347 C 4.688316 7.995815 2.001412 5.316924 1.995532 2.00099 " stroke="#38b6ff" stroke-width="4" stroke-opacity="1" stroke-miterlimit="4"/><path stroke-linecap="round" transform="matrix(0.238545, -0.329424, 0.329424, 0.238545, 17.915583, 55.437862)" fill-opacity="1" fill="#38b6ff" fill-rule="nonzero" stroke-linejoin="round" d="M 65.386414 1.999518 C 65.392294 5.315452 62.70777 7.994576 59.391836 8.000456 C 56.083681 8.000703 53.391145 5.314034 53.398677 2.000246 C 53.392797 -1.315688 56.07732 -3.994813 59.393254 -4.000693 C 62.701409 -4.00094 65.393946 -1.31427 65.386414 1.999518 " stroke="#38b6ff" stroke-width="4" stroke-opacity="1" stroke-miterlimit="4"/><path stroke-linecap="butt" transform="matrix(-0.255608, -0.316367, 0.316367, -0.255608, 21.909002, 56.646709)" fill="none" stroke-linejoin="miter" d="M 14.999678 1.997888 L 33.828437 1.998777 " stroke="#38b6ff" stroke-width="4" stroke-opacity="1" stroke-miterlimit="4"/><path stroke-linecap="round" transform="matrix(-0.255608, -0.316367, 0.316367, -0.255608, 21.909002, 56.646709)" fill-opacity="1" fill="#38b6ff" fill-rule="nonzero" stroke-linejoin="round" d="M 1.996679 1.999621 C 1.999202 -1.319737 4.685045 -4.002167 8.004403 -3.999644 C 11.31629 -4.003157 13.99872 -1.317314 13.996198 2.002044 C 13.99971 5.313931 11.313867 7.996361 8.00198 7.999874 C 4.682622 7.997351 2.000192 5.311508 1.996679 1.999621 " stroke="#38b6ff" stroke-width="4" stroke-opacity="1" stroke-miterlimit="4"/><path stroke-linecap="round" transform="matrix(-0.255608, -0.316367, 0.316367, -0.255608, 21.909002, 56.646709)" fill-opacity="1" fill="#38b6ff" fill-rule="nonzero" stroke-linejoin="round" d="M 46.831436 1.997045 C 46.828913 5.316403 44.14307 7.998833 40.831183 8.002346 C 37.519295 8.005858 34.829395 5.313979 34.831918 1.994621 C 34.835875 -1.31123 37.514248 -3.999696 40.833606 -3.997173 C 44.145493 -4.000686 46.827923 -1.314843 46.831436 1.997045 " stroke="#38b6ff" stroke-width="4" stroke-opacity="1" stroke-miterlimit="4"/><path stroke-linecap="butt" transform="matrix(-0.138869, 0.382282, -0.382282, -0.138869, 41.967461, 13.852064)" fill="none" stroke-linejoin="miter" d="M 14.99907 1.997128 L 52.961449 2.001441 " stroke="#38b6ff" stroke-width="4" stroke-opacity="1" stroke-miterlimit="4"/><path stroke-linecap="round" transform="matrix(-0.138869, 0.382282, -0.382282, -0.138869, 41.967461, 13.852064)" fill-opacity="1" fill="#38b6ff" fill-rule="nonzero" stroke-linejoin="round" d="M 2.001683 1.997765 C 2.004417 -1.313942 4.685194 -4.004436 7.996901 -4.001703 C 11.317635 -4.002249 13.999102 -1.318192 13.999648 2.002542 C 13.996915 5.314249 11.312858 7.995716 8.00443 8.00201 C 4.683696 8.002556 1.99895 5.309472 2.001683 1.997765 " stroke="#38b6ff" stroke-width="4" stroke-opacity="1" stroke-miterlimit="4"/><path stroke-linecap="round" transform="matrix(-0.138869, 0.382282, -0.382282, -0.138869, 41.967461, 13.852064)" fill-opacity="1" fill="#38b6ff" fill-rule="nonzero" stroke-linejoin="round" d="M 65.958836 2.000803 C 65.96513 5.309231 63.275325 8.003005 59.963618 8.000271 C 56.651911 7.997538 53.961417 5.31676 53.960871 1.996026 C 53.963604 -1.315681 56.647661 -3.997148 59.959368 -3.994414 C 63.276823 -4.003988 65.961569 -1.310904 65.958836 2.000803 " stroke="#38b6ff" stroke-width="4" stroke-opacity="1" stroke-miterlimit="4"/><path stroke-linecap="butt" transform="matrix(-0.377665, -0.150972, 0.150972, -0.377665, 53.963443, 46.183589)" fill="none" stroke-linejoin="miter" d="M 14.997009 2.000166 L 49.378452 2.002181 " stroke="#38b6ff" stroke-width="4" stroke-opacity="1" stroke-miterlimit="4"/><path stroke-linecap="round" transform="matrix(-0.377665, -0.150972, 0.150972, -0.377665, 53.963443, 46.183589)" fill-opacity="1" fill="#38b6ff" fill-rule="nonzero" stroke-linejoin="round" d="M 1.997405 2.004515 C 1.994549 -1.314495 4.684575 -4.003369 7.994667 -4.00266 C 11.317243 -3.996598 14.002551 -1.31549 14.001842 1.994603 C 14.004698 5.313613 11.314672 8.002487 8.00458 8.001778 C 4.68557 8.004633 1.996696 5.314607 1.997405 2.004515 " stroke="#38b6ff" stroke-width="4" stroke-opacity="1" stroke-miterlimit="4"/><path stroke-linecap="round" transform="matrix(-0.377665, -0.150972, 0.150972, -0.377665, 53.963443, 46.183589)" fill-opacity="1" fill="#38b6ff" fill-rule="nonzero" stroke-linejoin="round" d="M 62.378056 1.997832 C 62.368429 5.31149 59.687321 7.996798 56.377229 7.996089 C 53.058219 7.998945 50.37291 5.317837 50.370054 1.998827 C 50.370763 -1.311265 53.060789 -4.000139 56.370882 -3.99943 C 59.689892 -4.002286 62.378765 -1.31226 62.378056 1.997832 " stroke="#38b6ff" stroke-width="4" stroke-opacity="1" stroke-miterlimit="4"/><path stroke-linecap="butt" transform="matrix(-0.339986, 0.223233, -0.223233, -0.339986, 54.008444, 42.847219)" fill="none" stroke-linejoin="miter" d="M 15.002401 2.001919 L 46.954571 2.001823 " stroke="#38b6ff" stroke-width="4" stroke-opacity="1" stroke-miterlimit="4"/><path stroke-linecap="round" transform="matrix(-0.339986, 0.223233, -0.223233, -0.339986, 54.008444, 42.847219)" fill-opacity="1" fill="#38b6ff" fill-rule="nonzero" stroke-linejoin="round" d="M 1.997759 1.999795 C 2.003826 -1.316667 4.686097 -4.001913 8.002559 -3.995846 C 11.316264 -4.003079 13.996239 -1.312779 14.003472 2.000926 C 13.997405 5.317388 11.315134 8.002634 7.998672 7.996567 C 4.684967 8.0038 2.004992 5.313501 1.997759 1.999795 " stroke="#38b6ff" stroke-width="4" stroke-opacity="1" stroke-miterlimit="4"/><path stroke-linecap="round" transform="matrix(-0.339986, 0.223233, -0.223233, -0.339986, 54.008444, 42.847219)" fill-opacity="1" fill="#38b6ff" fill-rule="nonzero" stroke-linejoin="round" d="M 59.959213 2.003946 C 59.958418 5.31238 57.270875 8.005655 53.954413 7.999588 C 50.645979 7.998793 47.960733 5.316521 47.9535 2.002816 C 47.959567 -1.313646 50.641838 -3.998892 53.955543 -4.006125 C 57.272005 -4.000058 59.957252 -1.317787 59.959213 2.003946 " stroke="#38b6ff" stroke-width="4" stroke-opacity="1" stroke-miterlimit="4"/><path stroke-linecap="butt" transform="matrix(0.363931, 0.181599, -0.181599, 0.363931, 32.740356, 52.215996)" fill="none" stroke-linejoin="miter" d="M 14.999739 2.000492 L 28.40484 1.998419 " stroke="#38b6ff" stroke-width="4" stroke-opacity="1" stroke-miterlimit="4"/><path stroke-linecap="round" transform="matrix(0.363931, 0.181599, -0.181599, 0.363931, 32.740356, 52.215996)" fill-opacity="1" fill="#38b6ff" fill-rule="nonzero" stroke-linejoin="round" d="M 2.002675 2.002894 C 2.001054 -1.312948 4.683386 -4.00383 8.003515 -3.996857 C 11.319357 -3.998478 14.001646 -1.311858 13.998978 1.99539 C 14.000598 5.311231 11.318267 8.002114 8.002425 8.003734 C 4.682296 7.996761 2.000007 5.310141 2.002675 2.002894 " stroke="#38b6ff" stroke-width="4" stroke-opacity="1" stroke-miterlimit="4"/><path stroke-linecap="round" transform="matrix(0.363931, 0.181599, -0.181599, 0.363931, 32.740356, 52.215996)" fill-opacity="1" fill="#38b6ff" fill-rule="nonzero" stroke-linejoin="round" d="M 41.414787 2.000323 C 41.403525 5.311859 38.721194 8.002742 35.413946 8.000074 C 32.098105 8.001695 29.407222 5.319363 29.414195 1.999234 C 29.412575 -1.316608 32.099194 -3.998897 35.406442 -3.996229 C 38.722283 -3.99785 41.413166 -1.315518 41.414787 2.000323 " stroke="#38b6ff" stroke-width="4" stroke-opacity="1" stroke-miterlimit="4"/><path stroke-linecap="butt" transform="matrix(-0.378576, 0.148673, -0.148673, -0.378576, 48.101381, 31.407)" fill="none" stroke-linejoin="miter" d="M 14.999962 2.002707 L 32.149988 1.999956 " stroke="#38b6ff" stroke-width="4" stroke-opacity="1" stroke-miterlimit="4"/><path stroke-linecap="round" transform="matrix(-0.378576, 0.148673, -0.148673, -0.378576, 48.101381, 31.407)" fill-opacity="1" fill="#38b6ff" fill-rule="nonzero" stroke-linejoin="round" d="M 1.998328 2.004308 C 2.002388 -1.316576 4.68571 -3.998005 7.997655 -3.997455 C 11.3096 -3.996905 13.999969 -1.310073 13.999419 2.001872 C 13.998869 5.313817 11.312036 8.004186 8.000091 8.003636 C 4.688147 8.003086 1.997778 5.316253 1.998328 2.004308 " stroke="#38b6ff" stroke-width="4" stroke-opacity="1" stroke-miterlimit="4"/><path stroke-linecap="round" transform="matrix(-0.378576, 0.148673, -0.148673, -0.378576, 48.101381, 31.407)" fill-opacity="1" fill="#38b6ff" fill-rule="nonzero" stroke-linejoin="round" d="M 45.151622 1.998354 C 45.151072 5.310299 42.464239 8.000667 39.152294 8.000117 C 35.840349 7.999568 33.149981 5.312735 33.150531 2.00079 C 33.151081 -1.311155 35.837913 -4.001523 39.149858 -4.000973 C 42.461803 -4.000424 45.152172 -1.313591 45.151622 1.998354 " stroke="#38b6ff" stroke-width="4" stroke-opacity="1" stroke-miterlimit="4"/><path stroke-linecap="butt" transform="matrix(-0.403369, -0.0521273, 0.0521273, -0.403369, 43.377865, 17.946421)" fill="none" stroke-linejoin="miter" d="M 15.004123 1.995497 L 35.960862 1.998799 " stroke="#38b6ff" stroke-width="4" stroke-opacity="1" stroke-miterlimit="4"/><path stroke-linecap="round" transform="matrix(-0.403369, -0.0521273, 0.0521273, -0.403369, 43.377865, 17.946421)" fill-opacity="1" fill="#38b6ff" fill-rule="nonzero" stroke-linejoin="round" d="M 1.999111 2.000789 C 1.997238 -1.310919 4.690205 -4.002473 8.001912 -4.004346 C 11.314851 -3.996693 13.99565 -1.312021 13.997522 1.999687 C 13.999395 5.311394 11.315953 8.001718 8.004245 8.003591 C 4.681782 7.997169 2.000983 5.312496 1.999111 2.000789 " stroke="#38b6ff" stroke-width="4" stroke-opacity="1" stroke-miterlimit="4"/><path stroke-linecap="round" transform="matrix(-0.403369, -0.0521273, 0.0521273, -0.403369, 43.377865, 17.946421)" fill-opacity="1" fill="#38b6ff" fill-rule="nonzero" stroke-linejoin="round" d="M 48.957581 2.004263 C 48.959453 5.31597 46.274781 7.996769 42.963073 7.998642 C 39.641841 8.001745 36.961042 5.317073 36.957938 1.99584 C 36.956066 -1.315868 39.650263 -3.997897 42.961971 -3.99977 C 46.273678 -4.001642 48.954477 -1.31697 48.957581 2.004263 " stroke="#38b6ff" stroke-width="4" stroke-opacity="1" stroke-miterlimit="4"/><path stroke-linecap="butt" transform="matrix(-0.101712, 0.3938, -0.3938, -0.101712, 48.942196, 19.988971)" fill="none" stroke-linejoin="miter" d="M 14.99729 2.000732 L 23.299368 1.999032 " stroke="#38b6ff" stroke-width="4" stroke-opacity="1" stroke-miterlimit="4"/><path stroke-linecap="round" transform="matrix(-0.101712, 0.3938, -0.3938, -0.101712, 48.942196, 19.988971)" fill-opacity="1" fill="#38b6ff" fill-rule="nonzero" stroke-linejoin="round" d="M 2.001349 1.994694 C 1.998871 -1.317738 4.689486 -3.996553 8.001917 -3.999031 C 11.314348 -4.001509 14.002462 -1.313296 13.995641 2.001537 C 13.99812 5.313968 11.309907 8.002082 7.997475 8.00456 C 4.682642 7.99774 1.99693 5.318826 2.001349 1.994694 " stroke="#38b6ff" stroke-width="4" stroke-opacity="1" stroke-miterlimit="4"/><path stroke-linecap="round" transform="matrix(-0.101712, 0.3938, -0.3938, -0.101712, 48.942196, 19.988971)" fill-opacity="1" fill="#38b6ff" fill-rule="nonzero" stroke-linejoin="round" d="M 36.295309 2.00507 C 36.297788 5.317502 33.607173 7.996317 30.294742 7.998795 C 26.98231 8.001273 24.294196 5.31306 24.301017 1.998227 C 24.298539 -1.314204 26.986752 -4.002318 30.299183 -4.004796 C 33.614016 -3.997976 36.299728 -1.319062 36.295309 2.00507 " stroke="#38b6ff" stroke-width="4" stroke-opacity="1" stroke-miterlimit="4"/><path stroke-linecap="butt" transform="matrix(0.401632, 0.0641518, -0.0641518, 0.401632, 42.009625, 30.705081)" fill="none" stroke-linejoin="miter" d="M 15.000362 1.99528 L 23.29773 2.002413 " stroke="#38b6ff" stroke-width="4" stroke-opacity="1" stroke-miterlimit="4"/><path stroke-linecap="round" transform="matrix(0.401632, 0.0641518, -0.0641518, 0.401632, 42.009625, 30.705081)" fill-opacity="1" fill="#38b6ff" fill-rule="nonzero" stroke-linejoin="round" d="M 1.997619 2.000554 C 2.002672 -1.316799 4.686099 -4.001836 8.003452 -3.996783 C 11.309807 -3.999699 13.994843 -1.316272 13.999274 1.999567 C 14.003705 5.315405 11.310795 8.001957 8.002925 7.995389 C 4.687086 7.99982 2.00205 5.316393 1.997619 2.000554 " stroke="#38b6ff" stroke-width="4" stroke-opacity="1" stroke-miterlimit="4"/><path stroke-linecap="round" transform="matrix(0.401632, 0.0641518, -0.0641518, 0.401632, 42.009625, 30.705081)" fill-opacity="1" fill="#38b6ff" fill-rule="nonzero" stroke-linejoin="round" d="M 36.300473 1.997139 C 36.29542 5.314493 33.611993 7.999529 30.296155 8.00396 C 26.978801 7.998907 24.293765 5.315481 24.298818 1.998127 C 24.294387 -1.317712 26.977813 -4.002748 30.295167 -3.997695 C 33.611006 -4.002126 36.297557 -1.309216 36.300473 1.997139 " stroke="#38b6ff" stroke-width="4" stroke-opacity="1" stroke-miterlimit="4"/><g clip-path="url(#e79a405d23)"><g clip-path="url(#dcf4989c7c)"><g transform="matrix(1, 0, 0, 1, 29, 32)"><g clip-path="url(#a97f9c67a6)"><g clip-path="url(#4487252be9)"><g clip-path="url(#402ba4a67a)"><path fill="#38b6ff" d="M 0.300781 0.804688 L 7.941406 0.804688 L 7.941406 8.441406 L 0.300781 8.441406 Z M 0.300781 0.804688 " fill-opacity="1" fill-rule="nonzero"/></g></g></g></g></g></g><path stroke-linecap="butt" transform="matrix(-0.37449, -0.158684, 0.158684, -0.37449, 35.894736, 38.248844)" fill="none" stroke-linejoin="miter" d="M 15.000828 1.99567 L 63.859757 1.997744 " stroke="#38b6ff" stroke-width="4" stroke-opacity="1" stroke-miterlimit="4"/><path stroke-linecap="round" transform="matrix(-0.37449, -0.158684, 0.158684, -0.37449, 35.894736, 38.248844)" fill-opacity="1" fill="#38b6ff" fill-rule="nonzero" stroke-linejoin="round" d="M 1.995051 1.999164 C 2.001035 -1.309947 4.688123 -4.00275 7.997235 -3.996767 C 11.311442 -4.003374 13.995402 -1.312538 14.002009 2.001669 C 13.996025 5.310781 11.31778 7.999837 7.999826 7.9976 C 4.685618 8.004207 2.001658 5.313372 1.995051 1.999164 " stroke="#38b6ff" stroke-width="4" stroke-opacity="1" stroke-miterlimit="4"/><path stroke-linecap="round" transform="matrix(-0.37449, -0.158684, 0.158684, -0.37449, 35.894736, 38.248844)" fill-opacity="1" fill="#38b6ff" fill-rule="nonzero" stroke-linejoin="round" d="M 76.856691 1.997997 C 76.863297 5.312205 74.172462 7.996165 70.858254 8.002771 C 67.549143 7.996788 64.860087 5.318543 64.862323 2.000588 C 64.86456 -1.317366 67.546552 -3.997579 70.860759 -4.004186 C 74.178714 -4.00195 76.862674 -1.311114 76.856691 1.997997 " stroke="#38b6ff" stroke-width="4" stroke-opacity="1" stroke-miterlimit="4"/><path stroke-linecap="butt" transform="matrix(0.238545, -0.329424, 0.329424, 0.238545, 17.915583, 55.437862)" fill="none" stroke-linejoin="miter" d="M 15.001493 1.998123 L 52.393865 2.004531 " stroke="#38b6ff" stroke-width="4" stroke-opacity="1" stroke-miterlimit="4"/><path stroke-linecap="round" transform="matrix(0.238545, -0.329424, 0.329424, 0.238545, 17.915583, 55.437862)" fill-opacity="1" fill="#38b6ff" fill-rule="nonzero" stroke-linejoin="round" d="M 1.995532 2.00099 C 2.003064 -1.312798 4.681955 -3.999701 8.003521 -3.997802 C 11.311676 -3.998049 14.004213 -1.31138 13.996681 2.002408 C 13.996928 5.310563 11.310259 8.003099 8.002103 8.003347 C 4.688316 7.995815 2.001412 5.316924 1.995532 2.00099 " stroke="#38b6ff" stroke-width="4" stroke-opacity="1" stroke-miterlimit="4"/><path stroke-linecap="round" transform="matrix(0.238545, -0.329424, 0.329424, 0.238545, 17.915583, 55.437862)" fill-opacity="1" fill="#38b6ff" fill-rule="nonzero" stroke-linejoin="round" d="M 65.386414 1.999518 C 65.392294 5.315452 62.70777 7.994576 59.391836 8.000456 C 56.083681 8.000703 53.391145 5.314034 53.398677 2.000246 C 53.392797 -1.315688 56.07732 -3.994813 59.393254 -4.000693 C 62.701409 -4.00094 65.393946 -1.31427 65.386414 1.999518 " stroke="#38b6ff" stroke-width="4" stroke-opacity="1" stroke-miterlimit="4"/><path stroke-linecap="butt" transform="matrix(-0.255608, -0.316367, 0.316367, -0.255608, 21.909002, 56.646709)" fill="none" stroke-linejoin="miter" d="M 14.999678 1.997888 L 33.828437 1.998777 " stroke="#38b6ff" stroke-width="4" stroke-opacity="1" stroke-miterlimit="4"/><path stroke-linecap="round" transform="matrix(-0.255608, -0.316367, 0.316367, -0.255608, 21.909002, 56.646709)" fill-opacity="1" fill="#38b6ff" fill-rule="nonzero" stroke-linejoin="round" d="M 1.996679 1.999621 C 1.999202 -1.319737 4.685045 -4.002167 8.004403 -3.999644 C 11.31629 -4.003157 13.99872 -1.317314 13.996198 2.002044 C 13.99971 5.313931 11.313867 7.996361 8.00198 7.999874 C 4.682622 7.997351 2.000192 5.311508 1.996679 1.999621 " stroke="#38b6ff" stroke-width="4" stroke-opacity="1" stroke-miterlimit="4"/><path stroke-linecap="round" transform="matrix(-0.255608, -0.316367, 0.316367, -0.255608, 21.909002, 56.646709)" fill-opacity="1" fill="#38b6ff" fill-rule="nonzero" stroke-linejoin="round" d="M 46.831436 1.997045 C 46.828913 5.316403 44.14307 7.998833 40.831183 8.002346 C 37.519295 8.005858 34.829395 5.313979 34.831918 1.994621 C 34.835875 -1.31123 37.514248 -3.999696 40.833606 -3.997173 C 44.145493 -4.000686 46.827923 -1.314843 46.831436 1.997045 " stroke="#38b6ff" stroke-width="4" stroke-opacity="1" stroke-miterlimit="4"/><path stroke-linecap="butt" transform="matrix(-0.138869, 0.382282, -0.382282, -0.138869, 41.967461, 13.852064)" fill="none" stroke-linejoin="miter" d="M 14.99907 1.997128 L 52.961449 2.001441 " stroke="#38b6ff" stroke-width="4" stroke-opacity="1" stroke-miterlimit="4"/><path stroke-linecap="round" transform="matrix(-0.138869, 0.382282, -0.382282, -0.138869, 41.967461, 13.852064)" fill-opacity="1" fill="#38b6ff" fill-rule="nonzero" stroke-linejoin="round" d="M 2.001683 1.997765 C 2.004417 -1.313942 4.685194 -4.004436 7.996901 -4.001703 C 11.317635 -4.002249 13.999102 -1.318192 13.999648 2.002542 C 13.996915 5.314249 11.312858 7.995716 8.00443 8.00201 C 4.683696 8.002556 1.99895 5.309472 2.001683 1.997765 " stroke="#38b6ff" stroke-width="4" stroke-opacity="1" stroke-miterlimit="4"/><path stroke-linecap="round" transform="matrix(-0.138869, 0.382282, -0.382282, -0.138869, 41.967461, 13.852064)" fill-opacity="1" fill="#38b6ff" fill-rule="nonzero" stroke-linejoin="round" d="M 65.958836 2.000803 C 65.96513 5.309231 63.275325 8.003005 59.963618 8.000271 C 56.651911 7.997538 53.961417 5.31676 53.960871 1.996026 C 53.963604 -1.315681 56.647661 -3.997148 59.959368 -3.994414 C 63.276823 -4.003988 65.961569 -1.310904 65.958836 2.000803 " stroke="#38b6ff" stroke-width="4" stroke-opacity="1" stroke-miterlimit="4"/><path stroke-linecap="butt" transform="matrix(-0.377665, -0.150972, 0.150972, -0.377665, 53.963443, 46.183589)" fill="none" stroke-linejoin="miter" d="M 14.997009 2.000166 L 49.378452 2.002181 " stroke="#38b6ff" stroke-width="4" stroke-opacity="1" stroke-miterlimit="4"/><path stroke-linecap="round" transform="matrix(-0.377665, -0.150972, 0.150972, -0.377665, 53.963443, 46.183589)" fill-opacity="1" fill="#38b6ff" fill-rule="nonzero" stroke-linejoin="round" d="M 1.997405 2.004515 C 1.994549 -1.314495 4.684575 -4.003369 7.994667 -4.00266 C 11.317243 -3.996598 14.002551 -1.31549 14.001842 1.994603 C 14.004698 5.313613 11.314672 8.002487 8.00458 8.001778 C 4.68557 8.004633 1.996696 5.314607 1.997405 2.004515 " stroke="#38b6ff" stroke-width="4" stroke-opacity="1" stroke-miterlimit="4"/><path stroke-linecap="round" transform="matrix(-0.377665, -0.150972, 0.150972, -0.377665, 53.963443, 46.183589)" fill-opacity="1" fill="#38b6ff" fill-rule="nonzero" stroke-linejoin="round" d="M 62.378056 1.997832 C 62.368429 5.31149 59.687321 7.996798 56.377229 7.996089 C 53.058219 7.998945 50.37291 5.317837 50.370054 1.998827 C 50.370763 -1.311265 53.060789 -4.000139 56.370882 -3.99943 C 59.689892 -4.002286 62.378765 -1.31226 62.378056 1.997832 " stroke="#38b6ff" stroke-width="4" stroke-opacity="1" stroke-miterlimit="4"/><path stroke-linecap="butt" transform="matrix(-0.339986, 0.223233, -0.223233, -0.339986, 54.008444, 42.847219)" fill="none" stroke-linejoin="miter" d="M 15.002401 2.001919 L 46.954571 2.001823 " stroke="#38b6ff" stroke-width="4" stroke-opacity="1" stroke-miterlimit="4"/><path stroke-linecap="round" transform="matrix(-0.339986, 0.223233, -0.223233, -0.339986, 54.008444, 42.847219)" fill-opacity="1" fill="#38b6ff" fill-rule="nonzero" stroke-linejoin="round" d="M 1.997759 1.999795 C 2.003826 -1.316667 4.686097 -4.001913 8.002559 -3.995846 C 11.316264 -4.003079 13.996239 -1.312779 14.003472 2.000926 C 13.997405 5.317388 11.315134 8.002634 7.998672 7.996567 C 4.684967 8.0038 2.004992 5.313501 1.997759 1.999795 " stroke="#38b6ff" stroke-width="4" stroke-opacity="1" stroke-miterlimit="4"/><path stroke-linecap="round" transform="matrix(-0.339986, 0.223233, -0.223233, -0.339986, 54.008444, 42.847219)" fill-opacity="1" fill="#38b6ff" fill-rule="nonzero" stroke-linejoin="round" d="M 59.959213 2.003946 C 59.958418 5.31238 57.270875 8.005655 53.954413 7.999588 C 50.645979 7.998793 47.960733 5.316521 47.9535 2.002816 C 47.959567 -1.313646 50.641838 -3.998892 53.955543 -4.006125 C 57.272005 -4.000058 59.957252 -1.317787 59.959213 2.003946 " stroke="#38b6ff" stroke-width="4" stroke-opacity="1" stroke-miterlimit="4"/><path stroke-linecap="butt" transform="matrix(0.363931, 0.181599, -0.181599, 0.363931, 32.740356, 52.215996)" fill="none" stroke-linejoin="miter" d="M 14.999739 2.000492 L 28.40484 1.998419 " stroke="#38b6ff" stroke-width="4" stroke-opacity="1" stroke-miterlimit="4"/><path stroke-linecap="round" transform="matrix(0.363931, 0.181599, -0.181599, 0.363931, 32.740356, 52.215996)" fill-opacity="1" fill="#38b6ff" fill-rule="nonzero" stroke-linejoin="round" d="M 2.002675 2.002894 C 2.001054 -1.312948 4.683386 -4.00383 8.003515 -3.996857 C 11.319357 -3.998478 14.001646 -1.311858 13.998978 1.99539 C 14.000598 5.311231 11.318267 8.002114 8.002425 8.003734 C 4.682296 7.996761 2.000007 5.310141 2.002675 2.002894 " stroke="#38b6ff" stroke-width="4" stroke-opacity="1" stroke-miterlimit="4"/><path stroke-linecap="round" transform="matrix(0.363931, 0.181599, -0.181599, 0.363931, 32.740356, 52.215996)" fill-opacity="1" fill="#38b6ff" fill-rule="nonzero" stroke-linejoin="round" d="M 41.414787 2.000323 C 41.403525 5.311859 38.721194 8.002742 35.413946 8.000074 C 32.098105 8.001695 29.407222 5.319363 29.414195 1.999234 C 29.412575 -1.316608 32.099194 -3.998897 35.406442 -3.996229 C 38.722283 -3.99785 41.413166 -1.315518 41.414787 2.000323 " stroke="#38b6ff" stroke-width="4" stroke-opacity="1" stroke-miterlimit="4"/><path stroke-linecap="butt" transform="matrix(-0.378576, 0.148673, -0.148673, -0.378576, 48.101381, 31.407)" fill="none" stroke-linejoin="miter" d="M 14.999962 2.002707 L 32.149988 1.999956 " stroke="#38b6ff" stroke-width="4" stroke-opacity="1" stroke-miterlimit="4"/><path stroke-linecap="round" transform="matrix(-0.378576, 0.148673, -0.148673, -0.378576, 48.101381, 31.407)" fill-opacity="1" fill="#38b6ff" fill-rule="nonzero" stroke-linejoin="round" d="M 1.998328 2.004308 C 2.002388 -1.316576 4.68571 -3.998005 7.997655 -3.997455 C 11.3096 -3.996905 13.999969 -1.310073 13.999419 2.001872 C 13.998869 5.313817 11.312036 8.004186 8.000091 8.003636 C 4.688147 8.003086 1.997778 5.316253 1.998328 2.004308 " stroke="#38b6ff" stroke-width="4" stroke-opacity="1" stroke-miterlimit="4"/><path stroke-linecap="round" transform="matrix(-0.378576, 0.148673, -0.148673, -0.378576, 48.101381, 31.407)" fill-opacity="1" fill="#38b6ff" fill-rule="nonzero" stroke-linejoin="round" d="M 45.151622 1.998354 C 45.151072 5.310299 42.464239 8.000667 39.152294 8.000117 C 35.840349 7.999568 33.149981 5.312735 33.150531 2.00079 C 33.151081 -1.311155 35.837913 -4.001523 39.149858 -4.000973 C 42.461803 -4.000424 45.152172 -1.313591 45.151622 1.998354 " stroke="#38b6ff" stroke-width="4" stroke-opacity="1" stroke-miterlimit="4"/><path stroke-linecap="butt" transform="matrix(-0.403369, -0.0521273, 0.0521273, -0.403369, 43.377865, 17.946421)" fill="none" stroke-linejoin="miter" d="M 15.004123 1.995497 L 35.960862 1.998799 " stroke="#38b6ff" stroke-width="4" stroke-opacity="1" stroke-miterlimit="4"/><path stroke-linecap="round" transform="matrix(-0.403369, -0.0521273, 0.0521273, -0.403369, 43.377865, 17.946421)" fill-opacity="1" fill="#38b6ff" fill-rule="nonzero" stroke-linejoin="round" d="M 1.999111 2.000789 C 1.997238 -1.310919 4.690205 -4.002473 8.001912 -4.004346 C 11.314851 -3.996693 13.99565 -1.312021 13.997522 1.999687 C 13.999395 5.311394 11.315953 8.001718 8.004245 8.003591 C 4.681782 7.997169 2.000983 5.312496 1.999111 2.000789 " stroke="#38b6ff" stroke-width="4" stroke-opacity="1" stroke-miterlimit="4"/><path stroke-linecap="round" transform="matrix(-0.403369, -0.0521273, 0.0521273, -0.403369, 43.377865, 17.946421)" fill-opacity="1" fill="#38b6ff" fill-rule="nonzero" stroke-linejoin="round" d="M 48.957581 2.004263 C 48.959453 5.31597 46.274781 7.996769 42.963073 7.998642 C 39.641841 8.001745 36.961042 5.317073 36.957938 1.99584 C 36.956066 -1.315868 39.650263 -3.997897 42.961971 -3.99977 C 46.273678 -4.001642 48.954477 -1.31697 48.957581 2.004263 " stroke="#38b6ff" stroke-width="4" stroke-opacity="1" stroke-miterlimit="4"/><path stroke-linecap="butt" transform="matrix(-0.101712, 0.3938, -0.3938, -0.101712, 48.942196, 19.988971)" fill="none" stroke-linejoin="miter" d="M 14.99729 2.000732 L 23.299368 1.999032 " stroke="#38b6ff" stroke-width="4" stroke-opacity="1" stroke-miterlimit="4"/><path stroke-linecap="round" transform="matrix(-0.101712, 0.3938, -0.3938, -0.101712, 48.942196, 19.988971)" fill-opacity="1" fill="#38b6ff" fill-rule="nonzero" stroke-linejoin="round" d="M 2.001349 1.994694 C 1.998871 -1.317738 4.689486 -3.996553 8.001917 -3.999031 C 11.314348 -4.001509 14.002462 -1.313296 13.995641 2.001537 C 13.99812 5.313968 11.309907 8.002082 7.997475 8.00456 C 4.682642 7.99774 1.99693 5.318826 2.001349 1.994694 " stroke="#38b6ff" stroke-width="4" stroke-opacity="1" stroke-miterlimit="4"/><path stroke-linecap="round" transform="matrix(-0.101712, 0.3938, -0.3938, -0.101712, 48.942196, 19.988971)" fill-opacity="1" fill="#38b6ff" fill-rule="nonzero" stroke-linejoin="round" d="M 36.295309 2.00507 C 36.297788 5.317502 33.607173 7.996317 30.294742 7.998795 C 26.98231 8.001273 24.294196 5.31306 24.301017 1.998227 C 24.298539 -1.314204 26.986752 -4.002318 30.299183 -4.004796 C 33.614016 -3.997976 36.299728 -1.319062 36.295309 2.00507 " stroke="#38b6ff" stroke-width="4" stroke-opacity="1" stroke-miterlimit="4"/><path stroke-linecap="butt" transform="matrix(0.401632, 0.0641518, -0.0641518, 0.401632, 42.009625, 30.705081)" fill="none" stroke-linejoin="miter" d="M 15.000362 1.99528 L 23.29773 2.002413 " stroke="#38b6ff" stroke-width="4" stroke-opacity="1" stroke-miterlimit="4"/><path stroke-linecap="round" transform="matrix(0.401632, 0.0641518, -0.0641518, 0.401632, 42.009625, 30.705081)" fill-opacity="1" fill="#38b6ff" fill-rule="nonzero" stroke-linejoin="round" d="M 1.997619 2.000554 C 2.002672 -1.316799 4.686099 -4.001836 8.003452 -3.996783 C 11.309807 -3.999699 13.994843 -1.316272 13.999274 1.999567 C 14.003705 5.315405 11.310795 8.001957 8.002925 7.995389 C 4.687086 7.99982 2.00205 5.316393 1.997619 2.000554 " stroke="#38b6ff" stroke-width="4" stroke-opacity="1" stroke-miterlimit="4"/><path stroke-linecap="round" transform="matrix(0.401632, 0.0641518, -0.0641518, 0.401632, 42.009625, 30.705081)" fill-opacity="1" fill="#38b6ff" fill-rule="nonzero" stroke-linejoin="round" d="M 36.300473 1.997139 C 36.29542 5.314493 33.611993 7.999529 30.296155 8.00396 C 26.978801 7.998907 24.293765 5.315481 24.298818 1.998127 C 24.294387 -1.317712 26.977813 -4.002748 30.295167 -3.997695 C 33.611006 -4.002126 36.297557 -1.309216 36.300473 1.997139 " stroke="#38b6ff" stroke-width="4" stroke-opacity="1" stroke-miterlimit="4"/><g clip-path="url(#6d3f16c423)"><g clip-path="url(#280cb2ec79)"><g transform="matrix(1, 0, 0, 1, 29, 32)"><g clip-path="url(#6cec914f58)"><g clip-path="url(#0bdd3304c2)"><g clip-path="url(#b091791a14)"><path fill="#38b6ff" d="M 0.300781 0.804688 L 7.941406 0.804688 L 7.941406 8.441406 L 0.300781 8.441406 Z M 0.300781 0.804688 " fill-opacity="1" fill-rule="nonzero"/></g></g></g></g></g></g></g></g></g></svg>