<svg xmlns="http://www.w3.org/2000/svg" xmlns:xlink="http://www.w3.org/1999/xlink" width="1080" zoomAndPan="magnify" viewBox="0 0 810 255.749984" height="341" preserveAspectRatio="xMidYMid meet" version="1.0"><defs><g/><clipPath id="8945a9f784"><path d="M 424.871094 51.332031 L 575.636719 51.332031 L 575.636719 202.097656 L 424.871094 202.097656 Z M 424.871094 51.332031 " clip-rule="nonzero"/></clipPath><clipPath id="99afe3ddb9"><path d="M 500.253906 51.332031 C 458.621094 51.332031 424.871094 85.082031 424.871094 126.714844 C 424.871094 168.347656 458.621094 202.097656 500.253906 202.097656 C 541.886719 202.097656 575.636719 168.347656 575.636719 126.714844 C 575.636719 85.082031 541.886719 51.332031 500.253906 51.332031 Z M 500.253906 51.332031 " clip-rule="nonzero"/></clipPath><clipPath id="8fdb9f0f6b"><path d="M 0.871094 0.332031 L 151.636719 0.332031 L 151.636719 151.097656 L 0.871094 151.097656 Z M 0.871094 0.332031 " clip-rule="nonzero"/></clipPath><clipPath id="c391524b2f"><path d="M 76.253906 0.332031 C 34.621094 0.332031 0.871094 34.082031 0.871094 75.714844 C 0.871094 117.347656 34.621094 151.097656 76.253906 151.097656 C 117.886719 151.097656 151.636719 117.347656 151.636719 75.714844 C 151.636719 34.082031 117.886719 0.332031 76.253906 0.332031 Z M 76.253906 0.332031 " clip-rule="nonzero"/></clipPath><clipPath id="2112fd52e8"><rect x="0" width="152" y="0" height="152"/></clipPath><clipPath id="6e00236244"><rect x="0" width="708" y="0" height="253"/></clipPath></defs><g transform="matrix(1, 0, 0, 1, 51, 1)"><g clip-path="url(#6e00236244)"><g fill="#ffffff" fill-opacity="1"><g transform="translate(1.37545, 200.808444)"><g><path d="M 6.65625 -77.3125 C 6.65625 -86.613281 8.335938 -95.738281 11.703125 -104.6875 C 15.066406 -113.632812 19.96875 -121.796875 26.40625 -129.171875 C 32.851562 -136.546875 40.726562 -142.414062 50.03125 -146.78125 C 59.34375 -151.144531 69.9375 -153.328125 81.8125 -153.328125 C 95.84375 -153.328125 107.976562 -150.25 118.21875 -144.09375 C 128.457031 -137.9375 136.082031 -129.921875 141.09375 -120.046875 L 118.328125 -104.375 C 115.753906 -110.09375 112.390625 -114.632812 108.234375 -118 C 104.078125 -121.363281 99.632812 -123.722656 94.90625 -125.078125 C 90.1875 -126.441406 85.535156 -127.125 80.953125 -127.125 C 73.515625 -127.125 67.039062 -125.617188 61.53125 -122.609375 C 56.019531 -119.609375 51.398438 -115.675781 47.671875 -110.8125 C 43.953125 -105.945312 41.195312 -100.503906 39.40625 -94.484375 C 37.613281 -88.472656 36.71875 -82.460938 36.71875 -76.453125 C 36.71875 -69.722656 37.789062 -63.242188 39.9375 -57.015625 C 42.09375 -50.785156 45.132812 -45.269531 49.0625 -40.46875 C 53 -35.675781 57.722656 -31.882812 63.234375 -29.09375 C 68.753906 -26.300781 74.804688 -24.90625 81.390625 -24.90625 C 86.117188 -24.90625 90.914062 -25.691406 95.78125 -27.265625 C 100.644531 -28.847656 105.148438 -31.351562 109.296875 -34.78125 C 113.453125 -38.21875 116.675781 -42.660156 118.96875 -48.109375 L 143.234375 -34.140625 C 140.234375 -26.554688 135.332031 -20.113281 128.53125 -14.8125 C 121.726562 -9.519531 114.101562 -5.515625 105.65625 -2.796875 C 97.207031 -0.078125 88.832031 1.28125 80.53125 1.28125 C 69.644531 1.28125 59.691406 -0.96875 50.671875 -5.46875 C 41.660156 -9.976562 33.894531 -15.992188 27.375 -23.515625 C 20.863281 -31.035156 15.78125 -39.484375 12.125 -48.859375 C 8.476562 -58.234375 6.65625 -67.71875 6.65625 -77.3125 Z M 6.65625 -77.3125 "/></g></g></g><g fill="#ffffff" fill-opacity="1"><g transform="translate(148.681496, 200.808444)"><g><path d="M 15.890625 0 L 15.890625 -152.46875 L 80.53125 -152.46875 C 87.539062 -152.46875 93.976562 -151.035156 99.84375 -148.171875 C 105.71875 -145.304688 110.835938 -141.441406 115.203125 -136.578125 C 119.578125 -131.710938 122.976562 -126.269531 125.40625 -120.25 C 127.84375 -114.238281 129.0625 -108.085938 129.0625 -101.796875 C 129.0625 -93.203125 127.054688 -85.039062 123.046875 -77.3125 C 119.035156 -69.582031 113.523438 -63.28125 106.515625 -58.40625 C 99.503906 -53.539062 91.203125 -51.109375 81.609375 -51.109375 L 45.53125 -51.109375 L 45.53125 0 Z M 45.53125 -77.09375 L 79.890625 -77.09375 C 83.460938 -77.09375 86.679688 -78.09375 89.546875 -80.09375 C 92.410156 -82.101562 94.703125 -85.003906 96.421875 -88.796875 C 98.140625 -92.585938 99 -96.921875 99 -101.796875 C 99 -107.085938 98.03125 -111.59375 96.09375 -115.3125 C 94.164062 -119.039062 91.660156 -121.832031 88.578125 -123.6875 C 85.503906 -125.550781 82.175781 -126.484375 78.59375 -126.484375 L 45.53125 -126.484375 Z M 45.53125 -77.09375 "/></g></g></g><g fill="#ffffff" fill-opacity="1"><g transform="translate(282.459418, 200.808444)"><g><path d="M 15.890625 0 L 15.890625 -152.46875 L 83.328125 -152.46875 C 90.335938 -152.46875 96.8125 -151.035156 102.75 -148.171875 C 108.695312 -145.304688 113.851562 -141.441406 118.21875 -136.578125 C 122.582031 -131.710938 125.945312 -126.269531 128.3125 -120.25 C 130.675781 -114.238281 131.859375 -108.085938 131.859375 -101.796875 C 131.859375 -95.347656 130.75 -89.148438 128.53125 -83.203125 C 126.3125 -77.265625 123.125 -72.078125 118.96875 -67.640625 C 114.820312 -63.203125 109.957031 -59.769531 104.375 -57.34375 L 139.15625 0 L 106.515625 0 L 75.15625 -51.109375 L 45.53125 -51.109375 L 45.53125 0 Z M 45.53125 -77.09375 L 82.671875 -77.09375 C 86.398438 -77.09375 89.695312 -78.203125 92.5625 -80.421875 C 95.425781 -82.640625 97.710938 -85.609375 99.421875 -89.328125 C 101.140625 -93.054688 102 -97.210938 102 -101.796875 C 102 -106.660156 101 -110.914062 99 -114.5625 C 97 -118.21875 94.457031 -121.117188 91.375 -123.265625 C 88.300781 -125.410156 84.972656 -126.484375 81.390625 -126.484375 L 45.53125 -126.484375 Z M 45.53125 -77.09375 "/></g></g></g><g fill="#ffffff" fill-opacity="1"><g transform="translate(425.268497, 200.808444)"><g/></g></g><g fill="#ffffff" fill-opacity="1"><g transform="translate(476.804144, 200.808444)"><g/></g></g><g fill="#ffffff" fill-opacity="1"><g transform="translate(528.339791, 200.808444)"><g/></g></g><g fill="#ffffff" fill-opacity="1"><g transform="translate(573.657906, 200.808444)"><g><path d="M 129.921875 -126.484375 L 81.171875 -126.484375 L 81.171875 0 L 51.75 0 L 51.75 -126.484375 L 3 -126.484375 L 3 -152.46875 L 129.921875 -152.46875 Z M 129.921875 -126.484375 "/></g></g></g><g clip-path="url(#8945a9f784)"><g clip-path="url(#99afe3ddb9)"><g transform="matrix(1, 0, 0, 1, 424, 51)"><g clip-path="url(#2112fd52e8)"><g clip-path="url(#8fdb9f0f6b)"><g clip-path="url(#c391524b2f)"><path fill="#ffffff" d="M 0.871094 0.332031 L 151.636719 0.332031 L 151.636719 151.097656 L 0.871094 151.097656 Z M 0.871094 0.332031 " fill-opacity="1" fill-rule="nonzero"/></g></g></g></g></g></g><path fill="#f7931a" d="M 556.730469 140.664062 C 548.929688 171.953125 517.238281 190.996094 485.945312 183.195312 C 454.664062 175.390625 435.621094 143.699219 443.425781 112.410156 C 451.222656 81.117188 482.914062 62.074219 514.199219 69.875 C 545.488281 77.675781 564.53125 109.375 556.730469 140.664062 Z M 556.730469 140.664062 " fill-opacity="1" fill-rule="nonzero"/><path fill="#ffffff" d="M 525.828125 118.214844 C 526.992188 110.441406 521.074219 106.265625 512.980469 103.476562 L 515.605469 92.949219 L 509.199219 91.351562 L 506.644531 101.601562 C 504.957031 101.183594 503.226562 100.789062 501.507812 100.394531 L 504.082031 90.078125 L 497.679688 88.480469 L 495.050781 99.003906 C 493.65625 98.6875 492.289062 98.371094 490.960938 98.042969 L 490.964844 98.007812 L 482.128906 95.804688 L 480.425781 102.648438 C 480.425781 102.648438 485.179688 103.738281 485.078125 103.804688 C 487.675781 104.453125 488.144531 106.167969 488.066406 107.53125 L 485.074219 119.523438 C 485.253906 119.570312 485.484375 119.636719 485.742188 119.738281 C 485.527344 119.683594 485.300781 119.628906 485.0625 119.570312 L 480.875 136.371094 C 480.554688 137.160156 479.75 138.34375 477.9375 137.894531 C 478 137.988281 473.277344 136.730469 473.277344 136.730469 L 470.097656 144.066406 L 478.4375 146.144531 C 479.988281 146.535156 481.507812 146.941406 483.003906 147.324219 L 480.351562 157.972656 L 486.753906 159.570312 L 489.378906 149.035156 C 491.128906 149.507812 492.828125 149.949219 494.488281 150.359375 L 491.871094 160.84375 L 498.277344 162.441406 L 500.929688 151.816406 C 511.859375 153.882812 520.074219 153.046875 523.535156 143.164062 C 526.320312 135.207031 523.394531 130.617188 517.644531 127.625 C 521.832031 126.65625 524.988281 123.902344 525.828125 118.214844 Z M 511.1875 138.746094 C 509.207031 146.703125 495.808594 142.402344 491.464844 141.324219 L 494.980469 127.214844 C 499.324219 128.300781 513.257812 130.445312 511.1875 138.746094 Z M 513.167969 118.097656 C 511.363281 125.339844 500.210938 121.660156 496.59375 120.757812 L 499.78125 107.964844 C 503.398438 108.867188 515.050781 110.546875 513.167969 118.097656 Z M 513.167969 118.097656 " fill-opacity="1" fill-rule="nonzero"/></g></g></svg>