<svg xmlns="http://www.w3.org/2000/svg" xmlns:xlink="http://www.w3.org/1999/xlink" width="40" zoomAndPan="magnify" viewBox="0 0 30 37.92" height="40" preserveAspectRatio="xMidYMid meet" version="1.0"><defs><clipPath id="f57bbbc7e2"><path d="M 0.03125 0 L 29.96875 0 L 29.96875 29.9375 L 0.03125 29.9375 Z M 0.03125 0 " clip-rule="nonzero"/></clipPath><clipPath id="a028653e47"><path d="M 15 0 C 6.734375 0 0.03125 6.703125 0.03125 14.96875 C 0.03125 23.234375 6.734375 29.9375 15 29.9375 C 23.265625 29.9375 29.96875 23.234375 29.96875 14.96875 C 29.96875 6.703125 23.265625 0 15 0 Z M 15 0 " clip-rule="nonzero"/></clipPath><clipPath id="9f518f41a4"><path d="M 0.03125 0 L 29.96875 0 L 29.96875 29.9375 L 0.03125 29.9375 Z M 0.03125 0 " clip-rule="nonzero"/></clipPath><clipPath id="8a4a008f16"><path d="M 15 0 C 6.734375 0 0.03125 6.703125 0.03125 14.96875 C 0.03125 23.234375 6.734375 29.9375 15 29.9375 C 23.265625 29.9375 29.96875 23.234375 29.96875 14.96875 C 29.96875 6.703125 23.265625 0 15 0 Z M 15 0 " clip-rule="nonzero"/></clipPath><clipPath id="f5855b1541"><rect x="0" width="30" y="0" height="30"/></clipPath><clipPath id="030cc5ff24"><path d="M 3.023438 12.894531 L 26.976562 12.894531 L 26.976562 17.042969 L 3.023438 17.042969 Z M 3.023438 12.894531 " clip-rule="nonzero"/></clipPath><clipPath id="5062dc5278"><path d="M 3.773438 12.894531 L 26.226562 12.894531 C 26.425781 12.894531 26.613281 12.972656 26.753906 13.113281 C 26.894531 13.253906 26.976562 13.445312 26.976562 13.640625 L 26.976562 16.292969 C 26.976562 16.492188 26.894531 16.683594 26.753906 16.824219 C 26.613281 16.964844 26.425781 17.042969 26.226562 17.042969 L 3.773438 17.042969 C 3.574219 17.042969 3.386719 16.964844 3.246094 16.824219 C 3.105469 16.683594 3.023438 16.492188 3.023438 16.292969 L 3.023438 13.640625 C 3.023438 13.445312 3.105469 13.253906 3.246094 13.113281 C 3.386719 12.972656 3.574219 12.894531 3.773438 12.894531 Z M 3.773438 12.894531 " clip-rule="nonzero"/></clipPath><clipPath id="61c3692257"><path d="M 0.0234375 0.894531 L 23.976562 0.894531 L 23.976562 5.042969 L 0.0234375 5.042969 Z M 0.0234375 0.894531 " clip-rule="nonzero"/></clipPath><clipPath id="72c17b292c"><path d="M 0.773438 0.894531 L 23.226562 0.894531 C 23.425781 0.894531 23.613281 0.972656 23.753906 1.113281 C 23.894531 1.253906 23.976562 1.445312 23.976562 1.640625 L 23.976562 4.292969 C 23.976562 4.492188 23.894531 4.683594 23.753906 4.824219 C 23.613281 4.964844 23.425781 5.042969 23.226562 5.042969 L 0.773438 5.042969 C 0.574219 5.042969 0.386719 4.964844 0.246094 4.824219 C 0.105469 4.683594 0.0234375 4.492188 0.0234375 4.292969 L 0.0234375 1.640625 C 0.0234375 1.445312 0.105469 1.253906 0.246094 1.113281 C 0.386719 0.972656 0.574219 0.894531 0.773438 0.894531 Z M 0.773438 0.894531 " clip-rule="nonzero"/></clipPath><clipPath id="a575b30ffd"><rect x="0" width="24" y="0" height="6"/></clipPath></defs><g clip-path="url(#f57bbbc7e2)"><g clip-path="url(#a028653e47)"><g transform="matrix(1, 0, 0, 1, 0.000000000000000007, 0.000000000000005766)"><g clip-path="url(#f5855b1541)"><g clip-path="url(#9f518f41a4)"><g clip-path="url(#8a4a008f16)"><path fill="#f7931a" d="M 0.03125 0 L 29.96875 0 L 29.96875 29.9375 L 0.03125 29.9375 Z M 0.03125 0 " fill-opacity="1" fill-rule="nonzero"/></g></g></g></g></g></g><g clip-path="url(#030cc5ff24)"><g clip-path="url(#5062dc5278)"><g transform="matrix(1, 0, 0, 1, 3, 12)"><g clip-path="url(#a575b30ffd)"><g clip-path="url(#61c3692257)"><g clip-path="url(#72c17b292c)"><path fill="#ffffff" d="M 0.0234375 0.894531 L 23.976562 0.894531 L 23.976562 5.042969 L 0.0234375 5.042969 Z M 0.0234375 0.894531 " fill-opacity="1" fill-rule="nonzero"/></g></g></g></g></g></g></svg>