<svg xmlns="http://www.w3.org/2000/svg" xmlns:xlink="http://www.w3.org/1999/xlink" width="40" zoomAndPan="magnify" viewBox="0 0 30 37.92" height="40" preserveAspectRatio="xMidYMid meet" version="1.0"><defs><clipPath id="cb58d3eade"><path d="M 0.03125 0 L 29.96875 0 L 29.96875 29.9375 L 0.03125 29.9375 Z M 0.03125 0 " clip-rule="nonzero"/></clipPath><clipPath id="9db528db73"><path d="M 15 0 C 6.734375 0 0.03125 6.703125 0.03125 14.96875 C 0.03125 23.234375 6.734375 29.9375 15 29.9375 C 23.265625 29.9375 29.96875 23.234375 29.96875 14.96875 C 29.96875 6.703125 23.265625 0 15 0 Z M 15 0 " clip-rule="nonzero"/></clipPath><clipPath id="1153d6ce29"><path d="M 0.03125 0 L 29.96875 0 L 29.96875 29.9375 L 0.03125 29.9375 Z M 0.03125 0 " clip-rule="nonzero"/></clipPath><clipPath id="5da690f7eb"><path d="M 15 0 C 6.734375 0 0.03125 6.703125 0.03125 14.96875 C 0.03125 23.234375 6.734375 29.9375 15 29.9375 C 23.265625 29.9375 29.96875 23.234375 29.96875 14.96875 C 29.96875 6.703125 23.265625 0 15 0 Z M 15 0 " clip-rule="nonzero"/></clipPath><clipPath id="23744b5b1d"><rect x="0" width="30" y="0" height="30"/></clipPath><clipPath id="92c8f7dc66"><path d="M 5 4 L 25 4 L 25 26 L 5 26 Z M 5 4 " clip-rule="nonzero"/></clipPath><clipPath id="e56adaf0ec"><path d="M 21.183594 25.425781 L 5.664062 7.183594 L 8.824219 4.496094 L 24.34375 22.738281 Z M 21.183594 25.425781 " clip-rule="nonzero"/></clipPath><clipPath id="b9725fc19f"><path d="M 20.699219 24.855469 L 6.148438 7.753906 C 6.019531 7.601562 5.957031 7.40625 5.972656 7.210938 C 5.988281 7.011719 6.082031 6.828125 6.234375 6.699219 L 8.253906 4.980469 C 8.40625 4.851562 8.601562 4.789062 8.800781 4.804688 C 8.996094 4.820312 9.179688 4.914062 9.308594 5.066406 L 23.859375 22.167969 C 23.988281 22.320312 24.050781 22.515625 24.035156 22.710938 C 24.019531 22.910156 23.921875 23.09375 23.773438 23.222656 L 21.753906 24.941406 C 21.601562 25.070312 21.40625 25.132812 21.207031 25.117188 C 21.011719 25.101562 20.828125 25.007812 20.699219 24.855469 Z M 20.699219 24.855469 " clip-rule="nonzero"/></clipPath><clipPath id="c2be54f21e"><path d="M 0.78125 0.550781 L 19.21875 0.550781 L 19.21875 21.148438 L 0.78125 21.148438 Z M 0.78125 0.550781 " clip-rule="nonzero"/></clipPath><clipPath id="e8752de894"><path d="M 16.183594 21.425781 L 0.664062 3.183594 L 3.824219 0.496094 L 19.34375 18.738281 Z M 16.183594 21.425781 " clip-rule="nonzero"/></clipPath><clipPath id="a324596543"><path d="M 15.699219 20.855469 L 1.148438 3.753906 C 1.019531 3.601562 0.957031 3.40625 0.972656 3.210938 C 0.988281 3.011719 1.082031 2.828125 1.234375 2.699219 L 3.253906 0.980469 C 3.40625 0.851562 3.601562 0.789062 3.800781 0.804688 C 3.996094 0.820312 4.179688 0.914062 4.308594 1.066406 L 18.859375 18.167969 C 18.988281 18.320312 19.050781 18.515625 19.035156 18.710938 C 19.019531 18.910156 18.921875 19.09375 18.773438 19.222656 L 16.753906 20.941406 C 16.601562 21.070312 16.40625 21.132812 16.207031 21.117188 C 16.011719 21.101562 15.828125 21.007812 15.699219 20.855469 Z M 15.699219 20.855469 " clip-rule="nonzero"/></clipPath><clipPath id="c303c27a24"><rect x="0" width="20" y="0" height="22"/></clipPath><clipPath id="a1ccd4d837"><path d="M 6 4 L 24 4 L 24 26 L 6 26 Z M 6 4 " clip-rule="nonzero"/></clipPath><clipPath id="740e149245"><path d="M 24.28125 7.121094 L 8.886719 25.46875 L 5.710938 22.804688 L 21.101562 4.453125 Z M 24.28125 7.121094 " clip-rule="nonzero"/></clipPath><clipPath id="25750c8ffe"><path d="M 23.800781 7.691406 L 9.371094 24.894531 C 9.242188 25.046875 9.0625 25.140625 8.863281 25.160156 C 8.664062 25.175781 8.46875 25.113281 8.316406 24.988281 L 6.285156 23.285156 C 6.132812 23.15625 6.039062 22.972656 6.019531 22.773438 C 6.003906 22.578125 6.066406 22.382812 6.191406 22.230469 L 20.621094 5.027344 C 20.75 4.875 20.933594 4.78125 21.128906 4.761719 C 21.328125 4.746094 21.523438 4.808594 21.675781 4.933594 L 23.707031 6.640625 C 23.859375 6.765625 23.957031 6.949219 23.972656 7.148438 C 23.988281 7.34375 23.929688 7.542969 23.800781 7.691406 Z M 23.800781 7.691406 " clip-rule="nonzero"/></clipPath><clipPath id="186b57eb21"><path d="M 0 0.550781 L 18 0.550781 L 18 21.386719 L 0 21.386719 Z M 0 0.550781 " clip-rule="nonzero"/></clipPath><clipPath id="50c065f325"><path d="M 18.28125 3.121094 L 2.886719 21.46875 L -0.289062 18.804688 L 15.101562 0.453125 Z M 18.28125 3.121094 " clip-rule="nonzero"/></clipPath><clipPath id="6c69853ac1"><path d="M 17.800781 3.691406 L 3.371094 20.894531 C 3.242188 21.046875 3.0625 21.140625 2.863281 21.160156 C 2.664062 21.175781 2.46875 21.113281 2.316406 20.988281 L 0.285156 19.285156 C 0.132812 19.15625 0.0390625 18.972656 0.0195312 18.773438 C 0.00390625 18.578125 0.0664062 18.382812 0.191406 18.230469 L 14.621094 1.027344 C 14.75 0.875 14.933594 0.78125 15.128906 0.761719 C 15.328125 0.746094 15.523438 0.808594 15.675781 0.933594 L 17.707031 2.640625 C 17.859375 2.765625 17.957031 2.949219 17.972656 3.148438 C 17.988281 3.34375 17.929688 3.542969 17.800781 3.691406 Z M 17.800781 3.691406 " clip-rule="nonzero"/></clipPath><clipPath id="4c1a106446"><rect x="0" width="18" y="0" height="22"/></clipPath></defs><g clip-path="url(#cb58d3eade)"><g clip-path="url(#9db528db73)"><g transform="matrix(1, 0, 0, 1, 0.000000000000000007, 0.000000000000005766)"><g clip-path="url(#23744b5b1d)"><g clip-path="url(#1153d6ce29)"><g clip-path="url(#5da690f7eb)"><path fill="#ff3131" d="M 0.03125 0 L 29.96875 0 L 29.96875 29.9375 L 0.03125 29.9375 Z M 0.03125 0 " fill-opacity="1" fill-rule="nonzero"/></g></g></g></g></g></g><g clip-path="url(#92c8f7dc66)"><g clip-path="url(#e56adaf0ec)"><g clip-path="url(#b9725fc19f)"><g transform="matrix(1, 0, 0, 1, 5, 4)"><g clip-path="url(#c303c27a24)"><g clip-path="url(#c2be54f21e)"><g clip-path="url(#e8752de894)"><g clip-path="url(#a324596543)"><path fill="#ffffff" d="M 16.183594 21.425781 L 0.664062 3.183594 L 3.824219 0.496094 L 19.34375 18.738281 Z M 16.183594 21.425781 " fill-opacity="1" fill-rule="nonzero"/></g></g></g></g></g></g></g></g><g clip-path="url(#a1ccd4d837)"><g clip-path="url(#740e149245)"><g clip-path="url(#25750c8ffe)"><g transform="matrix(1, 0, 0, 1, 6, 4)"><g clip-path="url(#4c1a106446)"><g clip-path="url(#186b57eb21)"><g clip-path="url(#50c065f325)"><g clip-path="url(#6c69853ac1)"><path fill="#ffffff" d="M 18.28125 3.121094 L 2.886719 21.46875 L -0.289062 18.804688 L 15.101562 0.453125 Z M 18.28125 3.121094 " fill-opacity="1" fill-rule="nonzero"/></g></g></g></g></g></g></g></g></svg>