<svg xmlns="http://www.w3.org/2000/svg" xmlns:xlink="http://www.w3.org/1999/xlink" width="500" zoomAndPan="magnify" viewBox="0 0 375 374.999991" height="500" preserveAspectRatio="xMidYMid meet" version="1.0"><defs><clipPath id="a5c084e511"><path d="M 0.75 0.917969 L 338.25 0.917969 L 338.25 374 L 0.75 374 Z M 0.75 0.917969 " clip-rule="nonzero"/></clipPath><clipPath id="be9b5bbfd3"><path d="M 169.5 0.917969 L 338.25 94.191406 L 338.25 280.730469 L 169.5 374 L 0.75 280.730469 L 0.75 94.191406 Z M 169.5 0.917969 " clip-rule="nonzero"/></clipPath><clipPath id="c12f705e0a"><path d="M 0.75 0.917969 L 338.25 0.917969 L 338.25 374 L 0.75 374 Z M 0.75 0.917969 " clip-rule="nonzero"/></clipPath><clipPath id="18a55342cb"><path d="M 169.5 0.917969 L 338.25 94.191406 L 338.25 280.730469 L 169.5 374 L 0.75 280.730469 L 0.75 94.191406 Z M 169.5 0.917969 " clip-rule="nonzero"/></clipPath><clipPath id="2e7de0c219"><rect x="0" width="339" y="0" height="374"/></clipPath><clipPath id="4f9a75ee1c"><path d="M 9.699219 10.8125 L 329.300781 10.8125 L 329.300781 364.121094 L 9.699219 364.121094 Z M 9.699219 10.8125 " clip-rule="nonzero"/></clipPath><clipPath id="1a29489910"><path d="M 169.5 10.8125 L 329.300781 99.136719 L 329.300781 275.785156 L 169.5 364.105469 L 9.699219 275.785156 L 9.699219 99.136719 Z M 169.5 10.8125 " clip-rule="nonzero"/></clipPath><clipPath id="63dd51c7d5"><path d="M 0.699219 0.8125 L 320.300781 0.8125 L 320.300781 354.121094 L 0.699219 354.121094 Z M 0.699219 0.8125 " clip-rule="nonzero"/></clipPath><clipPath id="b402b24f6f"><path d="M 160.5 0.8125 L 320.300781 89.136719 L 320.300781 265.785156 L 160.5 354.105469 L 0.699219 265.785156 L 0.699219 89.136719 Z M 160.5 0.8125 " clip-rule="nonzero"/></clipPath><clipPath id="53fd87908f"><rect x="0" width="321" y="0" height="355"/></clipPath><clipPath id="37f45b9233"><path d="M 146.769531 164.058594 L 184.835938 164.058594 L 184.835938 202.125 L 146.769531 202.125 Z M 146.769531 164.058594 " clip-rule="nonzero"/></clipPath><clipPath id="ce83cfb949"><path d="M 165.800781 164.058594 C 155.289062 164.058594 146.769531 172.582031 146.769531 183.09375 C 146.769531 193.605469 155.289062 202.125 165.800781 202.125 C 176.3125 202.125 184.835938 193.605469 184.835938 183.09375 C 184.835938 172.582031 176.3125 164.058594 165.800781 164.058594 Z M 165.800781 164.058594 " clip-rule="nonzero"/></clipPath><clipPath id="7d62cd29d8"><path d="M 0.769531 0.0585938 L 38.835938 0.0585938 L 38.835938 38.125 L 0.769531 38.125 Z M 0.769531 0.0585938 " clip-rule="nonzero"/></clipPath><clipPath id="e13edc39ec"><path d="M 19.800781 0.0585938 C 9.289062 0.0585938 0.769531 8.582031 0.769531 19.09375 C 0.769531 29.605469 9.289062 38.125 19.800781 38.125 C 30.3125 38.125 38.835938 29.605469 38.835938 19.09375 C 38.835938 8.582031 30.3125 0.0585938 19.800781 0.0585938 Z M 19.800781 0.0585938 " clip-rule="nonzero"/></clipPath><clipPath id="d777cb5954"><rect x="0" width="39" y="0" height="39"/></clipPath><clipPath id="d04fc5865b"><path d="M 146.769531 164.058594 L 184.835938 164.058594 L 184.835938 202.125 L 146.769531 202.125 Z M 146.769531 164.058594 " clip-rule="nonzero"/></clipPath><clipPath id="c52bd97e70"><path d="M 165.800781 164.058594 C 155.289062 164.058594 146.769531 172.582031 146.769531 183.09375 C 146.769531 193.605469 155.289062 202.125 165.800781 202.125 C 176.3125 202.125 184.835938 193.605469 184.835938 183.09375 C 184.835938 172.582031 176.3125 164.058594 165.800781 164.058594 Z M 165.800781 164.058594 " clip-rule="nonzero"/></clipPath><clipPath id="33aac48edd"><path d="M 0.769531 0.0585938 L 38.835938 0.0585938 L 38.835938 38.125 L 0.769531 38.125 Z M 0.769531 0.0585938 " clip-rule="nonzero"/></clipPath><clipPath id="196bebe914"><path d="M 19.800781 0.0585938 C 9.289062 0.0585938 0.769531 8.582031 0.769531 19.09375 C 0.769531 29.605469 9.289062 38.125 19.800781 38.125 C 30.3125 38.125 38.835938 29.605469 38.835938 19.09375 C 38.835938 8.582031 30.3125 0.0585938 19.800781 0.0585938 Z M 19.800781 0.0585938 " clip-rule="nonzero"/></clipPath><clipPath id="c14e384c52"><rect x="0" width="39" y="0" height="39"/></clipPath><clipPath id="2f34108c8a"><rect x="0" width="339" y="0" height="374"/></clipPath></defs><g transform="matrix(1, 0, 0, 1, 18, 1)"><g clip-path="url(#2f34108c8a)"><g clip-path="url(#a5c084e511)"><g clip-path="url(#be9b5bbfd3)"><g transform="matrix(1, 0, 0, 1, 0.000000000000003553, 0)"><g clip-path="url(#2e7de0c219)"><g clip-path="url(#c12f705e0a)"><g clip-path="url(#18a55342cb)"><path fill="#38b6ff" d="M 0.75 0.917969 L 338.25 0.917969 L 338.25 374.015625 L 0.75 374.015625 Z M 0.75 0.917969 " fill-opacity="1" fill-rule="nonzero"/></g></g></g></g></g></g><g clip-path="url(#4f9a75ee1c)"><g clip-path="url(#1a29489910)"><g transform="matrix(1, 0, 0, 1, 9, 10)"><g clip-path="url(#53fd87908f)"><g clip-path="url(#63dd51c7d5)"><g clip-path="url(#b402b24f6f)"><path fill="#111720" d="M 0.699219 0.8125 L 320.300781 0.8125 L 320.300781 354.121094 L 0.699219 354.121094 Z M 0.699219 0.8125 " fill-opacity="1" fill-rule="nonzero"/></g></g></g></g></g></g><path stroke-linecap="butt" transform="matrix(-1.866225, -0.790781, 0.790781, -1.866225, 179.62678, 191.191486)" fill="none" stroke-linejoin="miter" d="M 14.999992 1.999823 L 63.862285 2.000492 " stroke="#38b6ff" stroke-width="4" stroke-opacity="1" stroke-miterlimit="4"/><path stroke-linecap="round" transform="matrix(-1.866225, -0.790781, 0.790781, -1.866225, 179.62678, 191.191486)" fill-opacity="1" fill="#38b6ff" fill-rule="nonzero" stroke-linejoin="round" d="M 1.99942 1.999478 C 1.999829 -1.314119 4.686199 -3.999245 7.999045 -4.00061 C 11.312642 -4.000201 14.000295 -1.312808 13.999885 2.000789 C 13.999476 5.314386 11.313105 7.999513 8.00026 8.000878 C 4.686663 8.000469 1.999762 5.31485 1.99942 1.999478 " stroke="#38b6ff" stroke-width="4" stroke-opacity="1" stroke-miterlimit="4"/><path stroke-linecap="round" transform="matrix(-1.866225, -0.790781, 0.790781, -1.866225, 179.62678, 191.191486)" fill-opacity="1" fill="#38b6ff" fill-rule="nonzero" stroke-linejoin="round" d="M 76.860331 1.999814 C 76.859922 5.313411 74.174303 8.000312 70.860706 7.999903 C 67.547109 7.999493 64.860208 5.313875 64.860617 2.000278 C 64.861026 -1.313319 67.546645 -4.00022 70.860242 -3.999811 C 74.175614 -4.000154 76.86074 -1.313783 76.860331 1.999814 " stroke="#38b6ff" stroke-width="4" stroke-opacity="1" stroke-miterlimit="4"/><path stroke-linecap="butt" transform="matrix(1.188758, -1.641641, 1.641641, 1.188758, 90.029997, 276.850725)" fill="none" stroke-linejoin="miter" d="M 14.999231 2.000483 L 52.391988 1.999429 " stroke="#38b6ff" stroke-width="4" stroke-opacity="1" stroke-miterlimit="4"/><path stroke-linecap="round" transform="matrix(1.188758, -1.641641, 1.641641, 1.188758, 90.029997, 276.850725)" fill-opacity="1" fill="#38b6ff" fill-rule="nonzero" stroke-linejoin="round" d="M 2.000036 2.000346 C 2.000488 -1.314596 4.686595 -3.9997 8.000407 -4.000809 C 11.313788 -3.999227 14.000453 -1.31425 14.000001 2.000692 C 13.99998 5.312942 11.313442 8.000738 8.000061 7.999156 C 4.68625 8.000265 2.000015 5.312597 2.000036 2.000346 " stroke="#38b6ff" stroke-width="4" stroke-opacity="1" stroke-miterlimit="4"/><path stroke-linecap="round" transform="matrix(1.188758, -1.641641, 1.641641, 1.188758, 90.029997, 276.850725)" fill-opacity="1" fill="#38b6ff" fill-rule="nonzero" stroke-linejoin="round" d="M 65.392314 2.001126 C 65.392293 5.313377 62.707316 8.000042 59.392374 7.99959 C 56.078562 8.0007 53.392328 5.313031 53.392349 2.000781 C 53.3928 -1.314161 56.078908 -3.999266 59.392719 -4.000375 C 62.7061 -3.998793 65.392766 -1.313816 65.392314 2.001126 " stroke="#38b6ff" stroke-width="4" stroke-opacity="1" stroke-miterlimit="4"/><path stroke-linecap="butt" transform="matrix(-1.273789, -1.576576, 1.576576, -1.273789, 109.930674, 282.874864)" fill="none" stroke-linejoin="miter" d="M 14.999733 1.999516 L 33.832332 1.999823 " stroke="#38b6ff" stroke-width="4" stroke-opacity="1" stroke-miterlimit="4"/><path stroke-linecap="round" transform="matrix(-1.273789, -1.576576, 1.576576, -1.273789, 109.930674, 282.874864)" fill-opacity="1" fill="#38b6ff" fill-rule="nonzero" stroke-linejoin="round" d="M 1.999706 1.999071 C 2.000043 -1.313315 4.685795 -3.999623 8.000891 -3.999574 C 11.313276 -3.999236 13.999585 -1.313485 14.000746 2.000112 C 13.999198 5.313997 11.313446 8.000305 8.001061 7.999968 C 4.685965 7.999919 1.999656 5.314167 1.999706 1.999071 " stroke="#38b6ff" stroke-width="4" stroke-opacity="1" stroke-miterlimit="4"/><path stroke-linecap="round" transform="matrix(-1.273789, -1.576576, 1.576576, -1.273789, 109.930674, 282.874864)" fill-opacity="1" fill="#38b6ff" fill-rule="nonzero" stroke-linejoin="round" d="M 46.832359 2.000268 C 46.833521 5.313865 44.14627 7.998962 40.832673 8.000124 C 37.517577 8.000075 34.83248 5.312824 34.832817 2.000438 C 34.831655 -1.313159 37.518618 -4.000966 40.832503 -3.999418 C 44.1461 -4.00058 46.832408 -1.314828 46.832359 2.000268 " stroke="#38b6ff" stroke-width="4" stroke-opacity="1" stroke-miterlimit="4"/><path stroke-linecap="butt" transform="matrix(-0.692035, 1.905051, -1.905051, -0.692035, 209.88941, 69.61328)" fill="none" stroke-linejoin="miter" d="M 14.999796 1.999849 L 52.961907 1.99903 " stroke="#38b6ff" stroke-width="4" stroke-opacity="1" stroke-miterlimit="4"/><path stroke-linecap="round" transform="matrix(-0.692035, 1.905051, -1.905051, -0.692035, 209.88941, 69.61328)" fill-opacity="1" fill="#38b6ff" fill-rule="nonzero" stroke-linejoin="round" d="M 1.999872 2.000008 C 1.999812 -1.31353 4.686238 -3.999502 7.999776 -3.999562 C 11.313314 -3.999622 13.999286 -1.313196 13.999346 2.000342 C 13.999406 5.313881 11.31298 7.999852 7.999442 7.999912 C 4.685903 7.999972 1.999932 5.313546 1.999872 2.000008 " stroke="#38b6ff" stroke-width="4" stroke-opacity="1" stroke-miterlimit="4"/><path stroke-linecap="round" transform="matrix(-0.692035, 1.905051, -1.905051, -0.692035, 209.88941, 69.61328)" fill-opacity="1" fill="#38b6ff" fill-rule="nonzero" stroke-linejoin="round" d="M 65.96249 2.000682 C 65.96255 5.314221 63.276124 8.000192 59.962585 8.000252 C 56.649047 8.000312 53.961264 5.314544 53.961204 2.001006 C 53.962956 -1.31319 56.648723 -4.000973 59.962262 -4.001033 C 63.2758 -4.001093 65.961772 -1.314667 65.96249 2.000682 " stroke="#38b6ff" stroke-width="4" stroke-opacity="1" stroke-miterlimit="4"/><path stroke-linecap="butt" transform="matrix(-1.882046, -0.752351, 0.752351, -1.882046, 269.669868, 230.733242)" fill="none" stroke-linejoin="miter" d="M 14.999395 2.000397 L 49.373888 1.999171 " stroke="#38b6ff" stroke-width="4" stroke-opacity="1" stroke-miterlimit="4"/><path stroke-linecap="round" transform="matrix(-1.882046, -0.752351, 0.752351, -1.882046, 269.669868, 230.733242)" fill-opacity="1" fill="#38b6ff" fill-rule="nonzero" stroke-linejoin="round" d="M 2.000075 1.99976 C 2.000068 -1.312789 4.6869 -3.999544 7.999449 -3.99955 C 11.313788 -4.000271 14.000542 -1.313439 14.000548 1.99911 C 13.99948 5.314163 11.314438 8.000203 8.0001 8.000924 C 4.686835 7.999141 2.000796 5.314098 2.000075 1.99976 " stroke="#38b6ff" stroke-width="4" stroke-opacity="1" stroke-miterlimit="4"/><path stroke-linecap="round" transform="matrix(-1.882046, -0.752351, 0.752351, -1.882046, 269.669868, 230.733242)" fill-opacity="1" fill="#38b6ff" fill-rule="nonzero" stroke-linejoin="round" d="M 62.374998 1.999093 C 62.37393 5.314147 59.688888 8.000186 56.374549 8.000908 C 53.061285 7.999125 50.375246 5.314082 50.374524 1.999744 C 50.374518 -1.312805 53.06135 -3.99956 56.373899 -3.999566 C 59.688237 -4.000288 62.374992 -1.313455 62.374998 1.999093 " stroke="#38b6ff" stroke-width="4" stroke-opacity="1" stroke-miterlimit="4"/><path stroke-linecap="butt" transform="matrix(-1.694278, 1.112453, -1.112453, -1.694278, 269.894078, 214.106886)" fill="none" stroke-linejoin="miter" d="M 15.000756 1.999832 L 46.95799 1.999913 " stroke="#38b6ff" stroke-width="4" stroke-opacity="1" stroke-miterlimit="4"/><path stroke-linecap="round" transform="matrix(-1.694278, 1.112453, -1.112453, -1.694278, 269.894078, 214.106886)" fill-opacity="1" fill="#38b6ff" fill-rule="nonzero" stroke-linejoin="round" d="M 1.999243 2.000583 C 1.999537 -1.314611 4.687081 -3.999705 8.000664 -4.000469 C 11.313189 -3.999623 13.999341 -1.31369 14.000105 1.999894 C 14.00087 5.313477 11.313879 8.00124 7.999742 7.999335 C 4.686159 8.000099 2.000007 5.314166 1.999243 2.000583 " stroke="#38b6ff" stroke-width="4" stroke-opacity="1" stroke-miterlimit="4"/><path stroke-linecap="round" transform="matrix(-1.694278, 1.112453, -1.112453, -1.694278, 269.894078, 214.106886)" fill-opacity="1" fill="#38b6ff" fill-rule="nonzero" stroke-linejoin="round" d="M 59.956834 1.999716 C 59.957598 5.313299 57.271665 7.999451 53.958082 8.000215 C 50.642888 7.999921 47.956736 5.313988 47.955972 2.000405 C 47.957876 -1.313731 50.643809 -3.999883 53.957392 -4.000647 C 57.269918 -3.9998 59.95607 -1.313867 59.956834 1.999716 " stroke="#38b6ff" stroke-width="4" stroke-opacity="1" stroke-miterlimit="4"/><path stroke-linecap="butt" transform="matrix(1.813602, 0.904973, -0.904973, 1.813602, 163.907321, 260.794983)" fill="none" stroke-linejoin="miter" d="M 14.99957 1.999832 L 28.409755 2.000307 " stroke="#38b6ff" stroke-width="4" stroke-opacity="1" stroke-miterlimit="4"/><path stroke-linecap="round" transform="matrix(1.813602, 0.904973, -0.904973, 1.813602, 163.907321, 260.794983)" fill-opacity="1" fill="#38b6ff" fill-rule="nonzero" stroke-linejoin="round" d="M 1.998784 1.999688 C 1.999733 -1.313426 4.686696 -4.000363 7.999809 -3.999414 C 11.313787 -4.00105 14.000724 -1.314088 14.000636 2.00075 C 13.999687 5.313864 11.31445 7.999941 7.999611 7.999853 C 4.686497 7.998904 2.000421 5.313666 1.998784 1.999688 " stroke="#38b6ff" stroke-width="4" stroke-opacity="1" stroke-miterlimit="4"/><path stroke-linecap="round" transform="matrix(1.813602, 0.904973, -0.904973, 1.813602, 163.907321, 260.794983)" fill-opacity="1" fill="#38b6ff" fill-rule="nonzero" stroke-linejoin="round" d="M 41.41054 2.000451 C 41.409592 5.313565 38.722629 8.000502 35.409515 7.999553 C 32.095538 8.00119 29.410325 5.313367 29.408689 1.999389 C 29.409637 -1.313725 32.094875 -3.999802 35.409714 -3.999713 C 38.722828 -3.998765 41.408904 -1.313527 41.41054 2.000451 " stroke="#38b6ff" stroke-width="4" stroke-opacity="1" stroke-miterlimit="4"/><path stroke-linecap="butt" transform="matrix(-1.886587, 0.740891, -0.740891, -1.886587, 240.45702, 157.09602)" fill="none" stroke-linejoin="miter" d="M 15.000531 1.999525 L 32.148399 2.00036 " stroke="#38b6ff" stroke-width="4" stroke-opacity="1" stroke-miterlimit="4"/><path stroke-linecap="round" transform="matrix(-1.886587, 0.740891, -0.740891, -1.886587, 240.45702, 157.09602)" fill-opacity="1" fill="#38b6ff" fill-rule="nonzero" stroke-linejoin="round" d="M 1.999523 1.999781 C 2.00014 -1.312837 4.686715 -3.999241 8.000038 -4.000418 C 11.312656 -3.999801 13.99906 -1.313226 14.000237 2.000097 C 13.99962 5.312715 11.313045 7.999119 7.999722 8.000296 C 4.687104 7.999679 2.0007 5.313104 1.999523 1.999781 " stroke="#38b6ff" stroke-width="4" stroke-opacity="1" stroke-miterlimit="4"/><path stroke-linecap="round" transform="matrix(-1.886587, 0.740891, -0.740891, -1.886587, 240.45702, 157.09602)" fill-opacity="1" fill="#38b6ff" fill-rule="nonzero" stroke-linejoin="round" d="M 45.149407 2.000104 C 45.14879 5.312722 42.462215 7.999126 39.148892 8.000303 C 35.83448 7.998982 33.149165 5.314905 33.148693 1.999788 C 33.14931 -1.31283 35.834091 -3.999938 39.149208 -4.000411 C 42.461826 -3.999794 45.14823 -1.313219 45.149407 2.000104 " stroke="#38b6ff" stroke-width="4" stroke-opacity="1" stroke-miterlimit="4"/><path stroke-linecap="butt" transform="matrix(-2.010137, -0.25977, 0.25977, -2.010137, 216.917963, 90.016984)" fill="none" stroke-linejoin="miter" d="M 15.000056 1.999299 L 35.958348 1.999789 " stroke="#38b6ff" stroke-width="4" stroke-opacity="1" stroke-miterlimit="4"/><path stroke-linecap="round" transform="matrix(-2.010137, -0.25977, 0.25977, -2.010137, 216.917963, 90.016984)" fill-opacity="1" fill="#38b6ff" fill-rule="nonzero" stroke-linejoin="round" d="M 1.999676 2.000345 C 2.000944 -1.313104 4.687177 -3.999949 8.000379 -4.000593 C 11.313828 -3.999326 14.000673 -1.313093 13.999406 2.000356 C 14.000049 5.313558 11.313816 8.000404 8.000367 7.999136 C 4.687165 7.99978 2.00032 5.313547 1.999676 2.000345 " stroke="#38b6ff" stroke-width="4" stroke-opacity="1" stroke-miterlimit="4"/><path stroke-linecap="round" transform="matrix(-2.010137, -0.25977, 0.25977, -2.010137, 216.917963, 90.016984)" fill-opacity="1" fill="#38b6ff" fill-rule="nonzero" stroke-linejoin="round" d="M 48.958975 2.000654 C 48.959619 5.313856 46.273386 8.000702 42.958025 7.999681 C 39.644823 8.000325 36.959889 5.313845 36.959246 2.000643 C 36.958355 -1.31447 39.644835 -3.999404 42.959948 -4.000295 C 46.27315 -4.000939 48.958084 -1.314459 48.958975 2.000654 " stroke="#38b6ff" stroke-width="4" stroke-opacity="1" stroke-miterlimit="4"/><path stroke-linecap="butt" transform="matrix(-0.506868, 1.962451, -1.962451, -0.506868, 244.647117, 100.195773)" fill="none" stroke-linejoin="miter" d="M 14.998993 1.999295 L 23.297473 1.999703 " stroke="#38b6ff" stroke-width="4" stroke-opacity="1" stroke-miterlimit="4"/><path stroke-linecap="round" transform="matrix(-0.506868, 1.962451, -1.962451, -0.506868, 244.647117, 100.195773)" fill-opacity="1" fill="#38b6ff" fill-rule="nonzero" stroke-linejoin="round" d="M 1.999476 2.000873 C 1.999399 -1.313282 4.685449 -3.999528 7.999604 -3.999605 C 11.313758 -3.999682 14.000005 -1.313632 14.000082 2.000523 C 13.999676 5.312812 11.313627 7.999058 7.999954 8.001001 C 4.685799 8.001077 1.999071 5.313162 1.999476 2.000873 " stroke="#38b6ff" stroke-width="4" stroke-opacity="1" stroke-miterlimit="4"/><path stroke-linecap="round" transform="matrix(-0.506868, 1.962451, -1.962451, -0.506868, 244.647117, 100.195773)" fill-opacity="1" fill="#38b6ff" fill-rule="nonzero" stroke-linejoin="round" d="M 36.297472 1.99999 C 36.297549 5.314145 33.6115 8.000392 30.297345 8.000468 C 26.98319 8.000545 24.296943 5.314496 24.296867 2.000341 C 24.29679 -1.313814 26.982839 -4.000061 30.296994 -4.000137 C 33.611149 -4.000214 36.297396 -1.314165 36.297472 1.99999 " stroke="#38b6ff" stroke-width="4" stroke-opacity="1" stroke-miterlimit="4"/><path stroke-linecap="butt" transform="matrix(2.001481, 0.319692, -0.319692, 2.001481, 210.099556, 153.598119)" fill="none" stroke-linejoin="miter" d="M 14.998914 1.999207 L 23.297711 2.000801 " stroke="#38b6ff" stroke-width="4" stroke-opacity="1" stroke-miterlimit="4"/><path stroke-linecap="round" transform="matrix(2.001481, 0.319692, -0.319692, 2.001481, 210.099556, 153.598119)" fill-opacity="1" fill="#38b6ff" fill-rule="nonzero" stroke-linejoin="round" d="M 2.000967 2.000706 C 2.000553 -1.31318 4.686233 -4.000251 8.000119 -4.000666 C 11.314309 -3.999177 13.999477 -1.313193 13.999892 2.000693 C 14.000306 5.314579 11.314322 7.999747 8.000436 8.000162 C 4.68655 8.000576 1.999175 5.312993 2.000967 2.000706 " stroke="#38b6ff" stroke-width="4" stroke-opacity="1" stroke-miterlimit="4"/><path stroke-linecap="round" transform="matrix(2.001481, 0.319692, -0.319692, 2.001481, 210.099556, 153.598119)" fill-opacity="1" fill="#38b6ff" fill-rule="nonzero" stroke-linejoin="round" d="M 36.297561 1.998998 C 36.296073 5.313188 33.610392 8.000259 30.296506 8.000674 C 26.982316 7.999185 24.297148 5.313201 24.296734 1.999315 C 24.296319 -1.314571 26.982304 -3.999739 30.296189 -4.000154 C 33.610075 -4.000568 36.297451 -1.312985 36.297561 1.998998 " stroke="#38b6ff" stroke-width="4" stroke-opacity="1" stroke-miterlimit="4"/><g clip-path="url(#37f45b9233)"><g clip-path="url(#ce83cfb949)"><g transform="matrix(1, 0, 0, 1, 146, 164)"><g clip-path="url(#d777cb5954)"><g clip-path="url(#7d62cd29d8)"><g clip-path="url(#e13edc39ec)"><path fill="#38b6ff" d="M 0.769531 0.0585938 L 38.835938 0.0585938 L 38.835938 38.125 L 0.769531 38.125 Z M 0.769531 0.0585938 " fill-opacity="1" fill-rule="nonzero"/></g></g></g></g></g></g><path stroke-linecap="butt" transform="matrix(-1.866225, -0.790781, 0.790781, -1.866225, 179.62678, 191.191486)" fill="none" stroke-linejoin="miter" d="M 14.999992 1.999823 L 63.862285 2.000492 " stroke="#38b6ff" stroke-width="4" stroke-opacity="1" stroke-miterlimit="4"/><path stroke-linecap="round" transform="matrix(-1.866225, -0.790781, 0.790781, -1.866225, 179.62678, 191.191486)" fill-opacity="1" fill="#38b6ff" fill-rule="nonzero" stroke-linejoin="round" d="M 1.99942 1.999478 C 1.999829 -1.314119 4.686199 -3.999245 7.999045 -4.00061 C 11.312642 -4.000201 14.000295 -1.312808 13.999885 2.000789 C 13.999476 5.314386 11.313105 7.999513 8.00026 8.000878 C 4.686663 8.000469 1.999762 5.31485 1.99942 1.999478 " stroke="#38b6ff" stroke-width="4" stroke-opacity="1" stroke-miterlimit="4"/><path stroke-linecap="round" transform="matrix(-1.866225, -0.790781, 0.790781, -1.866225, 179.62678, 191.191486)" fill-opacity="1" fill="#38b6ff" fill-rule="nonzero" stroke-linejoin="round" d="M 76.860331 1.999814 C 76.859922 5.313411 74.174303 8.000312 70.860706 7.999903 C 67.547109 7.999493 64.860208 5.313875 64.860617 2.000278 C 64.861026 -1.313319 67.546645 -4.00022 70.860242 -3.999811 C 74.175614 -4.000154 76.86074 -1.313783 76.860331 1.999814 " stroke="#38b6ff" stroke-width="4" stroke-opacity="1" stroke-miterlimit="4"/><path stroke-linecap="butt" transform="matrix(1.188758, -1.641641, 1.641641, 1.188758, 90.029997, 276.850725)" fill="none" stroke-linejoin="miter" d="M 14.999231 2.000483 L 52.391988 1.999429 " stroke="#38b6ff" stroke-width="4" stroke-opacity="1" stroke-miterlimit="4"/><path stroke-linecap="round" transform="matrix(1.188758, -1.641641, 1.641641, 1.188758, 90.029997, 276.850725)" fill-opacity="1" fill="#38b6ff" fill-rule="nonzero" stroke-linejoin="round" d="M 2.000036 2.000346 C 2.000488 -1.314596 4.686595 -3.9997 8.000407 -4.000809 C 11.313788 -3.999227 14.000453 -1.31425 14.000001 2.000692 C 13.99998 5.312942 11.313442 8.000738 8.000061 7.999156 C 4.68625 8.000265 2.000015 5.312597 2.000036 2.000346 " stroke="#38b6ff" stroke-width="4" stroke-opacity="1" stroke-miterlimit="4"/><path stroke-linecap="round" transform="matrix(1.188758, -1.641641, 1.641641, 1.188758, 90.029997, 276.850725)" fill-opacity="1" fill="#38b6ff" fill-rule="nonzero" stroke-linejoin="round" d="M 65.392314 2.001126 C 65.392293 5.313377 62.707316 8.000042 59.392374 7.99959 C 56.078562 8.0007 53.392328 5.313031 53.392349 2.000781 C 53.3928 -1.314161 56.078908 -3.999266 59.392719 -4.000375 C 62.7061 -3.998793 65.392766 -1.313816 65.392314 2.001126 " stroke="#38b6ff" stroke-width="4" stroke-opacity="1" stroke-miterlimit="4"/><path stroke-linecap="butt" transform="matrix(-1.273789, -1.576576, 1.576576, -1.273789, 109.930674, 282.874864)" fill="none" stroke-linejoin="miter" d="M 14.999733 1.999516 L 33.832332 1.999823 " stroke="#38b6ff" stroke-width="4" stroke-opacity="1" stroke-miterlimit="4"/><path stroke-linecap="round" transform="matrix(-1.273789, -1.576576, 1.576576, -1.273789, 109.930674, 282.874864)" fill-opacity="1" fill="#38b6ff" fill-rule="nonzero" stroke-linejoin="round" d="M 1.999706 1.999071 C 2.000043 -1.313315 4.685795 -3.999623 8.000891 -3.999574 C 11.313276 -3.999236 13.999585 -1.313485 14.000746 2.000112 C 13.999198 5.313997 11.313446 8.000305 8.001061 7.999968 C 4.685965 7.999919 1.999656 5.314167 1.999706 1.999071 " stroke="#38b6ff" stroke-width="4" stroke-opacity="1" stroke-miterlimit="4"/><path stroke-linecap="round" transform="matrix(-1.273789, -1.576576, 1.576576, -1.273789, 109.930674, 282.874864)" fill-opacity="1" fill="#38b6ff" fill-rule="nonzero" stroke-linejoin="round" d="M 46.832359 2.000268 C 46.833521 5.313865 44.14627 7.998962 40.832673 8.000124 C 37.517577 8.000075 34.83248 5.312824 34.832817 2.000438 C 34.831655 -1.313159 37.518618 -4.000966 40.832503 -3.999418 C 44.1461 -4.00058 46.832408 -1.314828 46.832359 2.000268 " stroke="#38b6ff" stroke-width="4" stroke-opacity="1" stroke-miterlimit="4"/><path stroke-linecap="butt" transform="matrix(-0.692035, 1.905051, -1.905051, -0.692035, 209.88941, 69.61328)" fill="none" stroke-linejoin="miter" d="M 14.999796 1.999849 L 52.961907 1.99903 " stroke="#38b6ff" stroke-width="4" stroke-opacity="1" stroke-miterlimit="4"/><path stroke-linecap="round" transform="matrix(-0.692035, 1.905051, -1.905051, -0.692035, 209.88941, 69.61328)" fill-opacity="1" fill="#38b6ff" fill-rule="nonzero" stroke-linejoin="round" d="M 1.999872 2.000008 C 1.999812 -1.31353 4.686238 -3.999502 7.999776 -3.999562 C 11.313314 -3.999622 13.999286 -1.313196 13.999346 2.000342 C 13.999406 5.313881 11.31298 7.999852 7.999442 7.999912 C 4.685903 7.999972 1.999932 5.313546 1.999872 2.000008 " stroke="#38b6ff" stroke-width="4" stroke-opacity="1" stroke-miterlimit="4"/><path stroke-linecap="round" transform="matrix(-0.692035, 1.905051, -1.905051, -0.692035, 209.88941, 69.61328)" fill-opacity="1" fill="#38b6ff" fill-rule="nonzero" stroke-linejoin="round" d="M 65.96249 2.000682 C 65.96255 5.314221 63.276124 8.000192 59.962585 8.000252 C 56.649047 8.000312 53.961264 5.314544 53.961204 2.001006 C 53.962956 -1.31319 56.648723 -4.000973 59.962262 -4.001033 C 63.2758 -4.001093 65.961772 -1.314667 65.96249 2.000682 " stroke="#38b6ff" stroke-width="4" stroke-opacity="1" stroke-miterlimit="4"/><path stroke-linecap="butt" transform="matrix(-1.882046, -0.752351, 0.752351, -1.882046, 269.669868, 230.733242)" fill="none" stroke-linejoin="miter" d="M 14.999395 2.000397 L 49.373888 1.999171 " stroke="#38b6ff" stroke-width="4" stroke-opacity="1" stroke-miterlimit="4"/><path stroke-linecap="round" transform="matrix(-1.882046, -0.752351, 0.752351, -1.882046, 269.669868, 230.733242)" fill-opacity="1" fill="#38b6ff" fill-rule="nonzero" stroke-linejoin="round" d="M 2.000075 1.99976 C 2.000068 -1.312789 4.6869 -3.999544 7.999449 -3.99955 C 11.313788 -4.000271 14.000542 -1.313439 14.000548 1.99911 C 13.99948 5.314163 11.314438 8.000203 8.0001 8.000924 C 4.686835 7.999141 2.000796 5.314098 2.000075 1.99976 " stroke="#38b6ff" stroke-width="4" stroke-opacity="1" stroke-miterlimit="4"/><path stroke-linecap="round" transform="matrix(-1.882046, -0.752351, 0.752351, -1.882046, 269.669868, 230.733242)" fill-opacity="1" fill="#38b6ff" fill-rule="nonzero" stroke-linejoin="round" d="M 62.374998 1.999093 C 62.37393 5.314147 59.688888 8.000186 56.374549 8.000908 C 53.061285 7.999125 50.375246 5.314082 50.374524 1.999744 C 50.374518 -1.312805 53.06135 -3.99956 56.373899 -3.999566 C 59.688237 -4.000288 62.374992 -1.313455 62.374998 1.999093 " stroke="#38b6ff" stroke-width="4" stroke-opacity="1" stroke-miterlimit="4"/><path stroke-linecap="butt" transform="matrix(-1.694278, 1.112453, -1.112453, -1.694278, 269.894078, 214.106886)" fill="none" stroke-linejoin="miter" d="M 15.000756 1.999832 L 46.95799 1.999913 " stroke="#38b6ff" stroke-width="4" stroke-opacity="1" stroke-miterlimit="4"/><path stroke-linecap="round" transform="matrix(-1.694278, 1.112453, -1.112453, -1.694278, 269.894078, 214.106886)" fill-opacity="1" fill="#38b6ff" fill-rule="nonzero" stroke-linejoin="round" d="M 1.999243 2.000583 C 1.999537 -1.314611 4.687081 -3.999705 8.000664 -4.000469 C 11.313189 -3.999623 13.999341 -1.31369 14.000105 1.999894 C 14.00087 5.313477 11.313879 8.00124 7.999742 7.999335 C 4.686159 8.000099 2.000007 5.314166 1.999243 2.000583 " stroke="#38b6ff" stroke-width="4" stroke-opacity="1" stroke-miterlimit="4"/><path stroke-linecap="round" transform="matrix(-1.694278, 1.112453, -1.112453, -1.694278, 269.894078, 214.106886)" fill-opacity="1" fill="#38b6ff" fill-rule="nonzero" stroke-linejoin="round" d="M 59.956834 1.999716 C 59.957598 5.313299 57.271665 7.999451 53.958082 8.000215 C 50.642888 7.999921 47.956736 5.313988 47.955972 2.000405 C 47.957876 -1.313731 50.643809 -3.999883 53.957392 -4.000647 C 57.269918 -3.9998 59.95607 -1.313867 59.956834 1.999716 " stroke="#38b6ff" stroke-width="4" stroke-opacity="1" stroke-miterlimit="4"/><path stroke-linecap="butt" transform="matrix(1.813602, 0.904973, -0.904973, 1.813602, 163.907321, 260.794983)" fill="none" stroke-linejoin="miter" d="M 14.99957 1.999832 L 28.409755 2.000307 " stroke="#38b6ff" stroke-width="4" stroke-opacity="1" stroke-miterlimit="4"/><path stroke-linecap="round" transform="matrix(1.813602, 0.904973, -0.904973, 1.813602, 163.907321, 260.794983)" fill-opacity="1" fill="#38b6ff" fill-rule="nonzero" stroke-linejoin="round" d="M 1.998784 1.999688 C 1.999733 -1.313426 4.686696 -4.000363 7.999809 -3.999414 C 11.313787 -4.00105 14.000724 -1.314088 14.000636 2.00075 C 13.999687 5.313864 11.31445 7.999941 7.999611 7.999853 C 4.686497 7.998904 2.000421 5.313666 1.998784 1.999688 " stroke="#38b6ff" stroke-width="4" stroke-opacity="1" stroke-miterlimit="4"/><path stroke-linecap="round" transform="matrix(1.813602, 0.904973, -0.904973, 1.813602, 163.907321, 260.794983)" fill-opacity="1" fill="#38b6ff" fill-rule="nonzero" stroke-linejoin="round" d="M 41.41054 2.000451 C 41.409592 5.313565 38.722629 8.000502 35.409515 7.999553 C 32.095538 8.00119 29.410325 5.313367 29.408689 1.999389 C 29.409637 -1.313725 32.094875 -3.999802 35.409714 -3.999713 C 38.722828 -3.998765 41.408904 -1.313527 41.41054 2.000451 " stroke="#38b6ff" stroke-width="4" stroke-opacity="1" stroke-miterlimit="4"/><path stroke-linecap="butt" transform="matrix(-1.886587, 0.740891, -0.740891, -1.886587, 240.45702, 157.09602)" fill="none" stroke-linejoin="miter" d="M 15.000531 1.999525 L 32.148399 2.00036 " stroke="#38b6ff" stroke-width="4" stroke-opacity="1" stroke-miterlimit="4"/><path stroke-linecap="round" transform="matrix(-1.886587, 0.740891, -0.740891, -1.886587, 240.45702, 157.09602)" fill-opacity="1" fill="#38b6ff" fill-rule="nonzero" stroke-linejoin="round" d="M 1.999523 1.999781 C 2.00014 -1.312837 4.686715 -3.999241 8.000038 -4.000418 C 11.312656 -3.999801 13.99906 -1.313226 14.000237 2.000097 C 13.99962 5.312715 11.313045 7.999119 7.999722 8.000296 C 4.687104 7.999679 2.0007 5.313104 1.999523 1.999781 " stroke="#38b6ff" stroke-width="4" stroke-opacity="1" stroke-miterlimit="4"/><path stroke-linecap="round" transform="matrix(-1.886587, 0.740891, -0.740891, -1.886587, 240.45702, 157.09602)" fill-opacity="1" fill="#38b6ff" fill-rule="nonzero" stroke-linejoin="round" d="M 45.149407 2.000104 C 45.14879 5.312722 42.462215 7.999126 39.148892 8.000303 C 35.83448 7.998982 33.149165 5.314905 33.148693 1.999788 C 33.14931 -1.31283 35.834091 -3.999938 39.149208 -4.000411 C 42.461826 -3.999794 45.14823 -1.313219 45.149407 2.000104 " stroke="#38b6ff" stroke-width="4" stroke-opacity="1" stroke-miterlimit="4"/><path stroke-linecap="butt" transform="matrix(-2.010137, -0.25977, 0.25977, -2.010137, 216.917963, 90.016984)" fill="none" stroke-linejoin="miter" d="M 15.000056 1.999299 L 35.958348 1.999789 " stroke="#38b6ff" stroke-width="4" stroke-opacity="1" stroke-miterlimit="4"/><path stroke-linecap="round" transform="matrix(-2.010137, -0.25977, 0.25977, -2.010137, 216.917963, 90.016984)" fill-opacity="1" fill="#38b6ff" fill-rule="nonzero" stroke-linejoin="round" d="M 1.999676 2.000345 C 2.000944 -1.313104 4.687177 -3.999949 8.000379 -4.000593 C 11.313828 -3.999326 14.000673 -1.313093 13.999406 2.000356 C 14.000049 5.313558 11.313816 8.000404 8.000367 7.999136 C 4.687165 7.99978 2.00032 5.313547 1.999676 2.000345 " stroke="#38b6ff" stroke-width="4" stroke-opacity="1" stroke-miterlimit="4"/><path stroke-linecap="round" transform="matrix(-2.010137, -0.25977, 0.25977, -2.010137, 216.917963, 90.016984)" fill-opacity="1" fill="#38b6ff" fill-rule="nonzero" stroke-linejoin="round" d="M 48.958975 2.000654 C 48.959619 5.313856 46.273386 8.000702 42.958025 7.999681 C 39.644823 8.000325 36.959889 5.313845 36.959246 2.000643 C 36.958355 -1.31447 39.644835 -3.999404 42.959948 -4.000295 C 46.27315 -4.000939 48.958084 -1.314459 48.958975 2.000654 " stroke="#38b6ff" stroke-width="4" stroke-opacity="1" stroke-miterlimit="4"/><path stroke-linecap="butt" transform="matrix(-0.506868, 1.962451, -1.962451, -0.506868, 244.647117, 100.195773)" fill="none" stroke-linejoin="miter" d="M 14.998993 1.999295 L 23.297473 1.999703 " stroke="#38b6ff" stroke-width="4" stroke-opacity="1" stroke-miterlimit="4"/><path stroke-linecap="round" transform="matrix(-0.506868, 1.962451, -1.962451, -0.506868, 244.647117, 100.195773)" fill-opacity="1" fill="#38b6ff" fill-rule="nonzero" stroke-linejoin="round" d="M 1.999476 2.000873 C 1.999399 -1.313282 4.685449 -3.999528 7.999604 -3.999605 C 11.313758 -3.999682 14.000005 -1.313632 14.000082 2.000523 C 13.999676 5.312812 11.313627 7.999058 7.999954 8.001001 C 4.685799 8.001077 1.999071 5.313162 1.999476 2.000873 " stroke="#38b6ff" stroke-width="4" stroke-opacity="1" stroke-miterlimit="4"/><path stroke-linecap="round" transform="matrix(-0.506868, 1.962451, -1.962451, -0.506868, 244.647117, 100.195773)" fill-opacity="1" fill="#38b6ff" fill-rule="nonzero" stroke-linejoin="round" d="M 36.297472 1.99999 C 36.297549 5.314145 33.6115 8.000392 30.297345 8.000468 C 26.98319 8.000545 24.296943 5.314496 24.296867 2.000341 C 24.29679 -1.313814 26.982839 -4.000061 30.296994 -4.000137 C 33.611149 -4.000214 36.297396 -1.314165 36.297472 1.99999 " stroke="#38b6ff" stroke-width="4" stroke-opacity="1" stroke-miterlimit="4"/><path stroke-linecap="butt" transform="matrix(2.001481, 0.319692, -0.319692, 2.001481, 210.099556, 153.598119)" fill="none" stroke-linejoin="miter" d="M 14.998914 1.999207 L 23.297711 2.000801 " stroke="#38b6ff" stroke-width="4" stroke-opacity="1" stroke-miterlimit="4"/><path stroke-linecap="round" transform="matrix(2.001481, 0.319692, -0.319692, 2.001481, 210.099556, 153.598119)" fill-opacity="1" fill="#38b6ff" fill-rule="nonzero" stroke-linejoin="round" d="M 2.000967 2.000706 C 2.000553 -1.31318 4.686233 -4.000251 8.000119 -4.000666 C 11.314309 -3.999177 13.999477 -1.313193 13.999892 2.000693 C 14.000306 5.314579 11.314322 7.999747 8.000436 8.000162 C 4.68655 8.000576 1.999175 5.312993 2.000967 2.000706 " stroke="#38b6ff" stroke-width="4" stroke-opacity="1" stroke-miterlimit="4"/><path stroke-linecap="round" transform="matrix(2.001481, 0.319692, -0.319692, 2.001481, 210.099556, 153.598119)" fill-opacity="1" fill="#38b6ff" fill-rule="nonzero" stroke-linejoin="round" d="M 36.297561 1.998998 C 36.296073 5.313188 33.610392 8.000259 30.296506 8.000674 C 26.982316 7.999185 24.297148 5.313201 24.296734 1.999315 C 24.296319 -1.314571 26.982304 -3.999739 30.296189 -4.000154 C 33.610075 -4.000568 36.297451 -1.312985 36.297561 1.998998 " stroke="#38b6ff" stroke-width="4" stroke-opacity="1" stroke-miterlimit="4"/><g clip-path="url(#d04fc5865b)"><g clip-path="url(#c52bd97e70)"><g transform="matrix(1, 0, 0, 1, 146, 164)"><g clip-path="url(#c14e384c52)"><g clip-path="url(#33aac48edd)"><g clip-path="url(#196bebe914)"><path fill="#38b6ff" d="M 0.769531 0.0585938 L 38.835938 0.0585938 L 38.835938 38.125 L 0.769531 38.125 Z M 0.769531 0.0585938 " fill-opacity="1" fill-rule="nonzero"/></g></g></g></g></g></g></g></g></svg>