<svg xmlns="http://www.w3.org/2000/svg" xmlns:xlink="http://www.w3.org/1999/xlink" width="1080" zoomAndPan="magnify" viewBox="0 0 810 147.000002" height="196" preserveAspectRatio="xMidYMid meet" version="1.0"><metadata><ContainsAiGeneratedContent>Yes</ContainsAiGeneratedContent></metadata><defs><clipPath id="a2e0014c97"><path d="M 2.738281 50 L 39 50 L 39 143 L 2.738281 143 Z M 2.738281 50 " clip-rule="nonzero"/></clipPath><clipPath id="b4db2f2d99"><path d="M 2.738281 16 L 39 16 L 39 43 L 2.738281 43 Z M 2.738281 16 " clip-rule="nonzero"/></clipPath><clipPath id="963adb60de"><path d="M 652 47 L 807.261719 47 L 807.261719 143 L 652 143 Z M 652 47 " clip-rule="nonzero"/></clipPath></defs><g clip-path="url(#a2e0014c97)"><path fill="#01acf1" d="M 2.738281 50.550781 L 38.699219 50.550781 L 38.699219 142.980469 L 2.738281 142.980469 Z M 2.738281 50.550781 " fill-opacity="1" fill-rule="nonzero"/></g><g clip-path="url(#b4db2f2d99)"><path fill="#01acf1" d="M 2.738281 16.386719 L 38.699219 16.386719 L 38.699219 42.5625 L 2.738281 42.5625 Z M 2.738281 16.386719 " fill-opacity="1" fill-rule="nonzero"/></g><path fill="#01acf1" d="M 121.25 47.785156 C 109.9375 47.785156 99.9375 52.703125 93.875 60.246094 L 93.875 50.566406 L 57.90625 50.566406 L 57.90625 142.964844 L 93.875 142.964844 L 93.875 89.121094 L 93.917969 89.121094 C 93.886719 88.769531 93.875 88.394531 93.875 88.035156 C 93.875 81.148438 99.441406 75.574219 106.324219 75.574219 C 113.210938 75.574219 118.777344 81.148438 118.777344 88.035156 C 118.777344 88.394531 118.761719 88.769531 118.734375 89.121094 L 118.777344 89.121094 L 118.777344 142.964844 L 154.746094 142.964844 L 154.746094 77.226562 C 154.746094 60.960938 139.757812 47.785156 121.25 47.785156 Z M 121.25 47.785156 " fill-opacity="1" fill-rule="nonzero"/><path fill="#01acf1" d="M 241.53125 50.550781 L 277.492188 50.550781 L 277.492188 142.980469 L 241.53125 142.980469 Z M 241.53125 50.550781 " fill-opacity="1" fill-rule="nonzero"/><path fill="#01acf1" d="M 279.234375 20.675781 C 279.234375 31.949219 270.101562 41.089844 258.835938 41.089844 C 247.574219 41.089844 238.441406 31.949219 238.441406 20.675781 C 238.441406 9.402344 247.574219 0.265625 258.835938 0.265625 C 270.101562 0.265625 279.234375 9.402344 279.234375 20.675781 Z M 279.234375 20.675781 " fill-opacity="1" fill-rule="nonzero"/><path fill="#01acf1" d="M 360.042969 47.785156 C 348.730469 47.785156 338.730469 52.703125 332.667969 60.246094 L 332.667969 50.566406 L 296.703125 50.566406 L 296.703125 142.964844 L 332.667969 142.964844 L 332.667969 89.121094 L 332.710938 89.121094 C 332.683594 88.769531 332.667969 88.394531 332.667969 88.035156 C 332.667969 81.148438 338.238281 75.574219 345.121094 75.574219 C 352.003906 75.574219 357.570312 81.148438 357.570312 88.035156 C 357.570312 88.394531 357.558594 88.769531 357.527344 89.121094 L 357.570312 89.121094 L 357.570312 142.964844 L 393.539062 142.964844 L 393.539062 77.226562 C 393.539062 60.960938 378.550781 47.785156 360.042969 47.785156 Z M 360.042969 47.785156 " fill-opacity="1" fill-rule="nonzero"/><path fill="#01acf1" d="M 410.90625 50.550781 L 446.871094 50.550781 L 446.871094 142.980469 L 410.90625 142.980469 Z M 410.90625 50.550781 " fill-opacity="1" fill-rule="nonzero"/><path fill="#01acf1" d="M 410.90625 16.386719 L 446.871094 16.386719 L 446.871094 42.5625 L 410.90625 42.5625 Z M 410.90625 16.386719 " fill-opacity="1" fill-rule="nonzero"/><g clip-path="url(#963adb60de)"><path fill="#01acf1" d="M 715.460938 47.785156 C 704.144531 47.785156 694.144531 52.703125 688.082031 60.246094 L 688.082031 50.566406 L 652.117188 50.566406 L 652.117188 142.964844 L 688.082031 142.964844 L 688.082031 89.121094 L 688.125 89.121094 C 688.097656 88.769531 688.082031 88.394531 688.082031 88.035156 C 688.082031 81.148438 693.652344 75.574219 700.535156 75.574219 C 707.417969 75.574219 712.988281 81.148438 712.988281 88.035156 C 712.988281 88.394531 712.972656 88.769531 712.941406 89.121094 L 712.988281 89.121094 L 712.988281 142.964844 L 748.953125 142.964844 L 748.953125 80.4375 C 751.226562 77.472656 754.816406 75.574219 758.84375 75.574219 C 765.730469 75.574219 771.296875 81.148438 771.296875 88.035156 C 771.296875 88.394531 771.28125 88.769531 771.253906 89.121094 L 771.296875 89.121094 L 771.296875 142.964844 L 807.261719 142.964844 L 807.261719 77.226562 C 807.261719 60.960938 792.277344 47.785156 773.769531 47.785156 C 761.261719 47.785156 750.367188 53.800781 744.613281 62.722656 C 738.863281 53.800781 727.964844 47.785156 715.460938 47.785156 Z M 715.460938 47.785156 " fill-opacity="1" fill-rule="nonzero"/></g><path fill="#01acf1" d="M 538.273438 50.566406 L 538.273438 116.390625 C 538.324219 132.613281 553.292969 145.742188 571.765625 145.742188 C 583.085938 145.742188 593.082031 140.832031 599.144531 133.28125 L 599.144531 143.007812 L 635.109375 143.007812 L 635.109375 50.566406 L 599.144531 50.566406 L 599.144531 104.40625 L 599.097656 104.40625 C 599.128906 104.757812 599.144531 105.132812 599.144531 105.492188 C 599.144531 112.378906 593.574219 117.953125 586.691406 117.953125 C 579.808594 117.953125 574.238281 112.378906 574.238281 105.492188 C 574.238281 105.132812 574.253906 104.757812 574.28125 104.40625 L 574.238281 104.40625 L 574.238281 50.566406 Z M 538.273438 50.566406 " fill-opacity="1" fill-rule="nonzero"/><path fill="#01acf1" d="M 207.71875 17.480469 C 192.367188 17.480469 179.746094 28.96875 177.910156 43.835938 L 177.652344 43.835938 L 177.652344 50.867188 L 164.332031 50.867188 L 164.332031 73.144531 L 177.652344 73.144531 L 177.652344 142.964844 L 213.617188 142.964844 L 213.617188 73.144531 L 232.058594 73.144531 L 232.058594 50.867188 L 213.617188 50.867188 L 213.617188 44.746094 C 214.78125 42.242188 217.03125 40.335938 219.777344 39.710938 L 232.101562 39.710938 L 232.101562 17.480469 L 207.847656 17.480469 C 207.804688 17.476562 207.761719 17.480469 207.71875 17.480469 Z M 207.71875 17.480469 " fill-opacity="1" fill-rule="nonzero"/><path fill="#01acf1" d="M 473.976562 22.777344 L 473.976562 50.867188 L 460.65625 50.867188 L 460.65625 73.144531 L 473.976562 73.144531 L 473.976562 115.175781 L 474.105469 115.175781 C 474.015625 116.054688 473.976562 116.960938 473.976562 117.867188 C 473.976562 132.414062 485.773438 144.222656 500.308594 144.222656 C 500.53125 144.222656 500.742188 144.226562 500.960938 144.222656 L 529.421875 144.222656 L 529.421875 116.519531 L 519.445312 116.519531 L 519.445312 116.476562 C 519.253906 116.488281 519.070312 116.519531 518.878906 116.519531 C 514.304688 116.519531 510.539062 113.117188 509.941406 108.703125 L 509.941406 73.144531 L 528.378906 73.144531 L 528.378906 50.867188 L 509.941406 50.867188 L 509.941406 22.777344 Z M 473.976562 22.777344 " fill-opacity="1" fill-rule="nonzero"/></svg>