<svg xmlns="http://www.w3.org/2000/svg" xmlns:xlink="http://www.w3.org/1999/xlink" width="1080" zoomAndPan="magnify" viewBox="0 0 810 137.249994" height="183" preserveAspectRatio="xMidYMid meet" version="1.0"><metadata><ContainsAiGeneratedContent>Yes</ContainsAiGeneratedContent></metadata><defs><g/><clipPath id="4716cbd62e"><rect x="0" width="373" y="0" height="108"/></clipPath></defs><path fill="#039adc" d="M 129.523438 51.195312 L 157.960938 51.195312 L 157.960938 85.3125 L 203.445312 85.3125 L 203.445312 51.195312 L 231.875 51.195312 L 265.980469 113.726562 L 237.5625 113.726562 L 221.316406 83.957031 L 180.707031 113.726562 L 140.085938 83.957031 L 123.839844 113.726562 L 95.414062 113.726562 Z M 129.523438 51.195312 " fill-opacity="1" fill-rule="nonzero"/><path fill="#039adc" d="M 265.984375 51.195312 L 265.984375 22.777344 L 95.414062 22.777344 L 95.414062 51.195312 L 123.839844 51.195312 L 126.945312 45.519531 L 163.640625 45.519531 L 163.640625 79.621094 L 197.765625 79.621094 L 197.765625 45.519531 L 234.460938 45.519531 L 237.5625 51.195312 Z M 265.984375 51.195312 " fill-opacity="1" fill-rule="nonzero"/><g transform="matrix(1, 0, 0, 1, 310, 14)"><g clip-path="url(#4716cbd62e)"><g fill="#ffffff" fill-opacity="1"><g transform="translate(0.995647, 89.634285)"><g><path d="M 59.671875 -71.140625 L 59.671875 -57.890625 L 39.5625 -57.890625 L 39.5625 0 L 26.328125 0 L 26.328125 -57.890625 L 6.21875 -57.890625 L 6.21875 -71.140625 Z M 59.671875 -71.140625 "/></g></g></g><g fill="#ffffff" fill-opacity="1"><g transform="translate(65.99412, 89.634285)"><g><path d="M 47.484375 -57.984375 L 19.5625 -57.984375 L 19.5625 -42.328125 L 36.1875 -42.328125 L 36.1875 -29.078125 L 19.5625 -29.078125 L 19.5625 -13.25 L 47.484375 -13.25 L 47.484375 0 L 6.21875 0 L 6.21875 -71.21875 L 47.484375 -71.21875 Z M 47.484375 -57.984375 "/></g></g></g><g fill="#ffffff" fill-opacity="1"><g transform="translate(119.700153, 89.634285)"><g><path d="M 19.46875 -13.25 L 47.390625 -13.25 L 47.390625 0 L 6.21875 0 L 6.21875 -71.140625 L 19.46875 -71.140625 Z M 19.46875 -13.25 "/></g></g></g><g fill="#ffffff" fill-opacity="1"><g transform="translate(173.317276, 89.634285)"><g><path d="M 65.453125 -71.140625 L 65.453125 0 L 52.203125 0 L 52.203125 -39.484375 L 43.125 -17.875 L 28.546875 -17.875 L 19.5625 -39.296875 L 19.5625 0 L 6.21875 0 L 6.21875 -71.140625 L 20.890625 -71.140625 L 35.828125 -35.296875 L 50.859375 -71.140625 Z M 65.453125 -71.140625 "/></g></g></g><g fill="#ffffff" fill-opacity="1"><g transform="translate(247.652297, 89.634285)"><g><path d="M 47.484375 -57.984375 L 19.5625 -57.984375 L 19.5625 -42.328125 L 36.1875 -42.328125 L 36.1875 -29.078125 L 19.5625 -29.078125 L 19.5625 -13.25 L 47.484375 -13.25 L 47.484375 0 L 6.21875 0 L 6.21875 -71.21875 L 47.484375 -71.21875 Z M 47.484375 -57.984375 "/></g></g></g><g fill="#ffffff" fill-opacity="1"><g transform="translate(301.358318, 89.634285)"><g><path d="M 64.03125 -71.140625 L 43.578125 -35.5625 L 64.03125 0.09375 L 47.390625 0.09375 L 35.21875 -20.984375 L 23.125 0 L 6.21875 0.09375 L 26.859375 -35.5625 L 6.21875 -71.140625 L 23.125 -71.140625 L 35.21875 -50.0625 L 47.390625 -71.140625 Z M 64.03125 -71.140625 "/></g></g></g></g></g></svg>